<svg width="1728" height="1048" viewBox="0 0 1728 1048" fill="none" xmlns="http://www.w3.org/2000/svg">
<rect width="1728" height="1048" fill="white"/>
<path d="M936.768 100.102L942.51 84.583H944.084L949.804 100.102H948.163L942.909 85.6028H943.663L938.409 100.102H936.768ZM939.429 95.9781L939.894 94.6922H946.678L947.144 95.9781H939.429ZM957.826 100.368C956.894 100.368 956.067 100.175 955.343 99.7912C954.633 99.3921 954.086 98.8453 953.702 98.1507V100.102H952.15V84.1396H953.702V91.0121C954.057 90.4505 954.574 89.948 955.254 89.5046C955.949 89.0612 956.813 88.8395 957.848 88.8395C958.956 88.8395 959.917 89.0908 960.73 89.5933C961.543 90.0958 962.171 90.783 962.614 91.655C963.072 92.527 963.301 93.5173 963.301 94.6257C963.301 95.7342 963.072 96.7244 962.614 97.5964C962.171 98.4536 961.543 99.1335 960.73 99.636C959.917 100.124 958.949 100.368 957.826 100.368ZM957.759 99.0153C958.542 99.0153 959.23 98.8305 959.821 98.461C960.412 98.0915 960.877 97.5816 961.217 96.9313C961.557 96.2663 961.727 95.4903 961.727 94.6036C961.727 93.7168 961.557 92.9409 961.217 92.2758C960.877 91.6107 960.412 91.1008 959.821 90.7461C959.23 90.3766 958.542 90.1919 957.759 90.1919C956.99 90.1919 956.303 90.3766 955.697 90.7461C955.106 91.1008 954.641 91.6107 954.301 92.2758C953.961 92.9409 953.791 93.7168 953.791 94.6036C953.791 95.4903 953.961 96.2663 954.301 96.9313C954.641 97.5816 955.106 98.0915 955.697 98.461C956.303 98.8305 956.99 99.0153 957.759 99.0153ZM970.452 100.368C969.388 100.368 968.435 100.131 967.592 99.6582C966.75 99.1852 966.085 98.5201 965.597 97.6629C965.124 96.7909 964.888 95.7712 964.888 94.6036C964.888 93.4212 965.132 92.4014 965.619 91.5442C966.107 90.687 966.772 90.0219 967.615 89.549C968.472 89.076 969.433 88.8395 970.497 88.8395C971.576 88.8395 972.529 89.076 973.357 89.549C974.199 90.0219 974.857 90.687 975.33 91.5442C975.817 92.4014 976.061 93.4212 976.061 94.6036C976.061 95.7712 975.817 96.7909 975.33 97.6629C974.842 98.5201 974.177 99.1852 973.334 99.6582C972.492 100.131 971.531 100.368 970.452 100.368ZM970.452 99.0374C971.177 99.0374 971.842 98.8749 972.448 98.5497C973.054 98.2098 973.541 97.7147 973.911 97.0644C974.28 96.3993 974.465 95.579 974.465 94.6036C974.465 93.6133 974.28 92.7931 973.911 92.1428C973.556 91.4925 973.076 91.0047 972.47 90.6796C971.864 90.3397 971.206 90.1697 970.497 90.1697C969.787 90.1697 969.122 90.3397 968.501 90.6796C967.895 91.0047 967.408 91.4925 967.038 92.1428C966.669 92.7931 966.484 93.6133 966.484 94.6036C966.484 95.579 966.669 96.3993 967.038 97.0644C967.408 97.7147 967.888 98.2098 968.479 98.5497C969.085 98.8749 969.743 99.0374 970.452 99.0374ZM982.317 100.368C981.149 100.368 980.181 99.9833 979.413 99.2148C978.659 98.4463 978.282 97.2417 978.282 95.6012V89.1056H979.834V95.4238C979.834 96.6358 980.078 97.5373 980.565 98.1285C981.068 98.7197 981.74 99.0153 982.583 99.0153C983.588 99.0153 984.386 98.6532 984.977 97.929C985.568 97.2048 985.864 96.1628 985.864 94.8031V89.1056H987.416V100.102H985.864V98.2393C985.539 98.9192 985.066 99.4439 984.445 99.8134C983.824 100.183 983.115 100.368 982.317 100.368ZM993.625 100.102C993.063 100.102 992.583 100.028 992.184 99.8799C991.8 99.7321 991.504 99.466 991.297 99.0818C991.105 98.6827 991.009 98.1211 991.009 97.3969V90.4357H989.102V89.1056H991.009V86.5561H992.561V89.1056H995.842V90.4357H992.561V97.1087C992.561 97.6408 992.598 98.025 992.672 98.2615C992.76 98.498 992.923 98.6458 993.159 98.7049C993.411 98.7492 993.788 98.7714 994.29 98.7714H995.642V100.102H993.625Z" fill="white"/>
<path d="M1072.2 100.102L1077.88 84.583H1080.85L1086.52 100.102H1083.71L1078.79 86.0684H1079.92L1075 100.102H1072.2ZM1074.82 96.4436L1075.55 94.3375H1083.18L1083.91 96.4436H1074.82ZM1091.81 100.368C1090.39 100.368 1089.22 100.035 1088.29 99.37C1087.35 98.7049 1086.82 97.7886 1086.69 96.621H1089.42C1089.52 97.1383 1089.79 97.5521 1090.24 97.8625C1090.69 98.158 1091.25 98.3058 1091.9 98.3058C1092.56 98.3058 1093.07 98.1802 1093.43 97.929C1093.8 97.6629 1093.98 97.3378 1093.98 96.9535C1093.98 96.6431 1093.86 96.4067 1093.61 96.2441C1093.37 96.0667 1092.94 95.9337 1092.32 95.845C1092.08 95.8007 1091.79 95.7564 1091.43 95.712C1091.09 95.6529 1090.8 95.5938 1090.55 95.5347C1089.97 95.4312 1089.43 95.2539 1088.93 95.0026C1088.43 94.7366 1088.02 94.3819 1087.71 93.9385C1087.41 93.4951 1087.27 92.9483 1087.27 92.298C1087.27 91.3225 1087.63 90.5022 1088.35 89.8372C1089.09 89.1721 1090.14 88.8395 1091.5 88.8395C1092.86 88.8395 1093.95 89.1425 1094.76 89.7485C1095.57 90.3397 1096.04 91.2117 1096.16 92.3645H1093.56C1093.52 91.8767 1093.3 91.5146 1092.9 91.2782C1092.51 91.0417 1092.05 90.9235 1091.5 90.9235C1090.91 90.9235 1090.45 91.0417 1090.13 91.2782C1089.8 91.4999 1089.64 91.7807 1089.64 92.1206C1089.64 92.7266 1090.15 93.1182 1091.17 93.2956C1091.31 93.3251 1091.5 93.3621 1091.72 93.4064C1091.96 93.436 1092.19 93.4729 1092.43 93.5173C1092.67 93.5468 1092.87 93.5764 1093.03 93.6059C1093.43 93.6503 1093.83 93.739 1094.23 93.872C1094.64 94.005 1095.02 94.1897 1095.36 94.4262C1095.7 94.6479 1095.96 94.9435 1096.16 95.313C1096.36 95.6825 1096.47 96.148 1096.47 96.7097C1096.47 97.4339 1096.28 98.0694 1095.91 98.6162C1095.56 99.1631 1095.03 99.5917 1094.34 99.902C1093.64 100.212 1092.8 100.368 1091.81 100.368ZM1098.22 100.102V84.1396H1100.88V90.8126C1101.25 90.2066 1101.75 89.7263 1102.39 89.3716C1103.04 89.0169 1103.77 88.8395 1104.58 88.8395C1105.91 88.8395 1106.95 89.2681 1107.71 90.1254C1108.46 90.9678 1108.84 92.2093 1108.84 93.8498V100.102H1106.2V94.1158C1106.2 93.1256 1106 92.3792 1105.6 91.8767C1105.22 91.3595 1104.6 91.1008 1103.76 91.1008C1102.93 91.1008 1102.25 91.389 1101.7 91.9654C1101.15 92.5418 1100.88 93.3621 1100.88 94.4262V100.102H1098.22ZM1116.25 100.368C1115.16 100.368 1114.17 100.131 1113.28 99.6582C1112.41 99.1704 1111.71 98.4906 1111.2 97.6186C1110.68 96.7466 1110.42 95.7416 1110.42 94.6036C1110.42 93.4508 1110.68 92.4457 1111.2 91.5885C1111.71 90.7165 1112.42 90.0441 1113.3 89.5711C1114.19 89.0834 1115.17 88.8395 1116.25 88.8395C1117.36 88.8395 1118.35 89.0834 1119.22 89.5711C1120.09 90.0441 1120.79 90.7165 1121.31 91.5885C1121.82 92.4457 1122.08 93.4508 1122.08 94.6036C1122.08 95.7416 1121.82 96.7466 1121.31 97.6186C1120.79 98.4906 1120.09 99.1704 1119.2 99.6582C1118.33 100.131 1117.34 100.368 1116.25 100.368ZM1116.25 98.062C1116.81 98.062 1117.32 97.9364 1117.78 97.6851C1118.25 97.4191 1118.63 97.0348 1118.91 96.5323C1119.19 96.015 1119.33 95.3721 1119.33 94.6036C1119.33 93.835 1119.19 93.1995 1118.91 92.697C1118.63 92.1797 1118.25 91.7954 1117.78 91.5442C1117.32 91.2782 1116.82 91.1451 1116.27 91.1451C1115.71 91.1451 1115.19 91.2782 1114.72 91.5442C1114.25 91.7954 1113.87 92.1797 1113.59 92.697C1113.31 93.1995 1113.17 93.835 1113.17 94.6036C1113.17 95.3721 1113.31 96.015 1113.59 96.5323C1113.87 97.0348 1114.24 97.4191 1114.7 97.6851C1115.17 97.9364 1115.69 98.062 1116.25 98.062ZM1126.1 96.8205L1124.94 95.0913L1130.49 89.1056H1133.64L1126.1 96.8205ZM1123.61 100.102V84.1396H1126.28V100.102H1123.61ZM1131.09 100.102L1126.78 94.5149L1128.4 92.8965L1134.37 100.102H1131.09ZM1138.6 100.368C1137.75 100.368 1137.04 100.22 1136.45 99.9242C1135.86 99.6138 1135.4 99.2074 1135.09 98.7049C1134.78 98.2024 1134.63 97.6555 1134.63 97.0644C1134.63 95.9116 1135.04 95.0174 1135.87 94.3819C1136.71 93.7464 1137.81 93.4286 1139.17 93.4286C1139.79 93.4286 1140.34 93.4803 1140.81 93.5838C1141.3 93.6725 1141.69 93.7611 1141.99 93.8498V93.3399C1141.99 92.527 1141.76 91.9285 1141.3 91.5442C1140.86 91.1599 1140.27 90.9678 1139.55 90.9678C1139.02 90.9678 1138.55 91.0786 1138.13 91.3003C1137.72 91.5072 1137.45 91.8915 1137.33 92.4531H1134.81C1134.89 91.655 1135.16 90.99 1135.6 90.4579C1136.05 89.9258 1136.61 89.5268 1137.29 89.2608C1137.98 88.9799 1138.74 88.8395 1139.55 88.8395C1141.16 88.8395 1142.41 89.2386 1143.3 90.0367C1144.2 90.82 1144.65 91.9211 1144.65 93.3399V96.0224C1144.65 96.584 1144.68 96.9979 1144.74 97.2639C1144.81 97.5151 1144.92 97.6777 1145.07 97.7516C1145.23 97.8107 1145.44 97.8403 1145.69 97.8403H1145.8V100.102H1145.2C1144.45 100.102 1143.81 99.9981 1143.3 99.7912C1142.79 99.5695 1142.44 99.1409 1142.23 98.5054C1141.86 99.0374 1141.38 99.4808 1140.77 99.8355C1140.16 100.19 1139.44 100.368 1138.6 100.368ZM1139.17 98.3058C1139.69 98.3058 1140.13 98.1876 1140.5 97.9511C1140.87 97.6999 1141.17 97.3747 1141.39 96.9757C1141.63 96.5619 1141.78 96.1111 1141.86 95.6234C1141.55 95.5347 1141.18 95.446 1140.75 95.3573C1140.32 95.2686 1139.88 95.2243 1139.44 95.2243C1138.77 95.2243 1138.25 95.3721 1137.87 95.6677C1137.5 95.9633 1137.31 96.3623 1137.31 96.8648C1137.31 97.2787 1137.47 97.626 1137.8 97.9068C1138.14 98.1728 1138.6 98.3058 1139.17 98.3058ZM1154.23 100.102V84.583H1160.37C1161.45 84.583 1162.36 84.753 1163.08 85.0929C1163.82 85.4328 1164.37 85.9058 1164.74 86.5118C1165.13 87.1029 1165.32 87.7828 1165.32 88.5513C1165.32 89.3347 1165.15 89.9923 1164.81 90.5244C1164.47 91.0565 1164.02 91.4629 1163.46 91.7437C1162.91 92.0245 1162.31 92.2019 1161.66 92.2758L1161.99 92.0319C1162.7 92.0467 1163.33 92.2314 1163.88 92.5862C1164.44 92.9261 1164.88 93.3843 1165.19 93.9607C1165.51 94.5371 1165.67 95.1726 1165.67 95.8672C1165.67 96.6801 1165.47 97.4117 1165.07 98.062C1164.69 98.6975 1164.12 99.2 1163.37 99.5695C1162.61 99.9242 1161.69 100.102 1160.6 100.102H1154.23ZM1156.89 97.929H1160.22C1161.09 97.929 1161.76 97.7294 1162.24 97.3304C1162.72 96.9166 1162.97 96.3328 1162.97 95.579C1162.97 94.84 1162.72 94.2562 1162.21 93.8276C1161.73 93.3843 1161.04 93.1626 1160.15 93.1626H1156.89V97.929ZM1156.89 91.1451H1160C1160.84 91.1451 1161.48 90.953 1161.93 90.5687C1162.37 90.1697 1162.59 89.6229 1162.59 88.9282C1162.59 88.2484 1162.37 87.7163 1161.93 87.332C1161.5 86.933 1160.85 86.7334 1159.98 86.7334H1156.89V91.1451ZM1171.1 100.368C1169.86 100.368 1168.87 99.9464 1168.13 99.1039C1167.4 98.2467 1167.04 96.9979 1167.04 95.3573V89.1056H1169.68V95.0913C1169.68 96.0815 1169.87 96.8353 1170.26 97.3526C1170.64 97.8551 1171.19 98.1063 1171.92 98.1063C1172.73 98.1063 1173.37 97.8181 1173.82 97.2417C1174.3 96.6653 1174.53 95.845 1174.53 94.7809V89.1056H1177.19V100.102H1174.53V98.4389C1174.21 99.0448 1173.76 99.5178 1173.18 99.8577C1172.61 100.198 1171.91 100.368 1171.1 100.368ZM1183.58 100.368C1182.16 100.368 1180.99 100.035 1180.06 99.37C1179.13 98.7049 1178.6 97.7886 1178.46 96.621H1181.19C1181.29 97.1383 1181.57 97.5521 1182.01 97.8625C1182.47 98.158 1183.02 98.3058 1183.67 98.3058C1184.34 98.3058 1184.85 98.1802 1185.2 97.929C1185.57 97.6629 1185.76 97.3378 1185.76 96.9535C1185.76 96.6431 1185.63 96.4067 1185.38 96.2441C1185.14 96.0667 1184.71 95.9337 1184.09 95.845C1183.86 95.8007 1183.56 95.7564 1183.21 95.712C1182.87 95.6529 1182.57 95.5938 1182.32 95.5347C1181.74 95.4312 1181.2 95.2539 1180.7 95.0026C1180.2 94.7366 1179.79 94.3819 1179.48 93.9385C1179.19 93.4951 1179.04 92.9483 1179.04 92.298C1179.04 91.3225 1179.4 90.5022 1180.12 89.8372C1180.86 89.1721 1181.91 88.8395 1183.27 88.8395C1184.63 88.8395 1185.72 89.1425 1186.53 89.7485C1187.34 90.3397 1187.81 91.2117 1187.93 92.3645H1185.33C1185.29 91.8767 1185.07 91.5146 1184.67 91.2782C1184.29 91.0417 1183.82 90.9235 1183.27 90.9235C1182.68 90.9235 1182.22 91.0417 1181.9 91.2782C1181.57 91.4999 1181.41 91.7807 1181.41 92.1206C1181.41 92.7266 1181.92 93.1182 1182.94 93.2956C1183.09 93.3251 1183.27 93.3621 1183.49 93.4064C1183.73 93.436 1183.97 93.4729 1184.2 93.5173C1184.44 93.5468 1184.64 93.5764 1184.8 93.6059C1185.2 93.6503 1185.6 93.739 1186 93.872C1186.41 94.005 1186.79 94.1897 1187.13 94.4262C1187.47 94.6479 1187.74 94.9435 1187.93 95.313C1188.14 95.6825 1188.24 96.148 1188.24 96.7097C1188.24 97.4339 1188.05 98.0694 1187.68 98.6162C1187.33 99.1631 1186.81 99.5917 1186.11 99.902C1185.42 100.212 1184.57 100.368 1183.58 100.368ZM1190.04 100.102V89.1056H1192.7V100.102H1190.04ZM1190.04 87.2212V84.4943H1192.72V87.2212H1190.04ZM1194.71 100.102V89.1056H1197.37V90.8126C1197.74 90.2066 1198.24 89.7263 1198.86 89.3716C1199.49 89.0169 1200.22 88.8395 1201.03 88.8395C1202.39 88.8395 1203.45 89.2681 1204.2 90.1254C1204.96 90.9678 1205.33 92.2093 1205.33 93.8498V100.102H1202.67V94.1158C1202.67 93.1256 1202.46 92.3792 1202.05 91.8767C1201.65 91.3595 1201.04 91.1008 1200.21 91.1008C1199.4 91.1008 1198.72 91.389 1198.17 91.9654C1197.64 92.5418 1197.37 93.3621 1197.37 94.4262V100.102H1194.71ZM1212.54 100.368C1211.44 100.368 1210.45 100.131 1209.6 99.6582C1208.75 99.1704 1208.09 98.498 1207.6 97.6408C1207.13 96.7836 1206.89 95.7933 1206.89 94.6701C1206.89 93.532 1207.13 92.527 1207.6 91.655C1208.07 90.7683 1208.74 90.081 1209.6 89.5933C1210.45 89.0908 1211.44 88.8395 1212.57 88.8395C1213.65 88.8395 1214.59 89.076 1215.4 89.549C1216.23 90.0219 1216.87 90.6648 1217.31 91.4777C1217.77 92.2758 1218 93.1773 1218 94.1823C1218 94.3301 1218 94.4927 1218 94.6701C1218 94.8474 1217.98 95.0396 1217.95 95.2465H1208.82V93.5173H1215.32C1215.27 92.7487 1214.99 92.1428 1214.47 91.6994C1213.96 91.2412 1213.32 91.0121 1212.57 91.0121C1212.02 91.0121 1211.51 91.1378 1211.04 91.389C1210.58 91.6255 1210.21 91.9876 1209.93 92.4753C1209.65 92.9483 1209.51 93.5542 1209.51 94.2932V94.9361C1209.51 95.616 1209.64 96.1998 1209.91 96.6875C1210.19 97.1752 1210.56 97.5447 1211.01 97.796C1211.47 98.0472 1211.98 98.1728 1212.54 98.1728C1213.15 98.1728 1213.66 98.0398 1214.07 97.7738C1214.49 97.493 1214.79 97.1235 1214.98 96.6653H1217.69C1217.5 97.3747 1217.16 98.0103 1216.67 98.5719C1216.2 99.1187 1215.61 99.5547 1214.92 99.8799C1214.22 100.205 1213.43 100.368 1212.54 100.368ZM1223.55 100.368C1222.13 100.368 1220.95 100.035 1220.02 99.37C1219.09 98.7049 1218.56 97.7886 1218.43 96.621H1221.15C1221.26 97.1383 1221.53 97.5521 1221.97 97.8625C1222.43 98.158 1222.99 98.3058 1223.64 98.3058C1224.3 98.3058 1224.81 98.1802 1225.17 97.929C1225.54 97.6629 1225.72 97.3378 1225.72 96.9535C1225.72 96.6431 1225.6 96.4067 1225.34 96.2441C1225.11 96.0667 1224.68 95.9337 1224.06 95.845C1223.82 95.8007 1223.53 95.7564 1223.17 95.712C1222.83 95.6529 1222.54 95.5938 1222.29 95.5347C1221.71 95.4312 1221.17 95.2539 1220.67 95.0026C1220.16 94.7366 1219.76 94.3819 1219.45 93.9385C1219.15 93.4951 1219 92.9483 1219 92.298C1219 91.3225 1219.37 90.5022 1220.09 89.8372C1220.83 89.1721 1221.88 88.8395 1223.24 88.8395C1224.6 88.8395 1225.68 89.1425 1226.5 89.7485C1227.31 90.3397 1227.78 91.2117 1227.89 92.3645H1225.3C1225.26 91.8767 1225.03 91.5146 1224.64 91.2782C1224.25 91.0417 1223.79 90.9235 1223.24 90.9235C1222.65 90.9235 1222.19 91.0417 1221.86 91.2782C1221.54 91.4999 1221.38 91.7807 1221.38 92.1206C1221.38 92.7266 1221.89 93.1182 1222.91 93.2956C1223.05 93.3251 1223.24 93.3621 1223.46 93.4064C1223.7 93.436 1223.93 93.4729 1224.17 93.5173C1224.41 93.5468 1224.61 93.5764 1224.77 93.6059C1225.17 93.6503 1225.57 93.739 1225.97 93.872C1226.38 94.005 1226.76 94.1897 1227.1 94.4262C1227.44 94.6479 1227.7 94.9435 1227.89 95.313C1228.1 95.6825 1228.2 96.148 1228.2 96.7097C1228.2 97.4339 1228.02 98.0694 1227.65 98.6162C1227.3 99.1631 1226.77 99.5917 1226.08 99.902C1225.38 100.212 1224.54 100.368 1223.55 100.368ZM1234.2 100.368C1232.78 100.368 1231.61 100.035 1230.68 99.37C1229.74 98.7049 1229.21 97.7886 1229.08 96.621H1231.81C1231.91 97.1383 1232.18 97.5521 1232.63 97.8625C1233.08 98.158 1233.64 98.3058 1234.29 98.3058C1234.95 98.3058 1235.46 98.1802 1235.82 97.929C1236.19 97.6629 1236.37 97.3378 1236.37 96.9535C1236.37 96.6431 1236.25 96.4067 1236 96.2441C1235.76 96.0667 1235.33 95.9337 1234.71 95.845C1234.47 95.8007 1234.18 95.7564 1233.82 95.712C1233.48 95.6529 1233.19 95.5938 1232.94 95.5347C1232.36 95.4312 1231.82 95.2539 1231.32 95.0026C1230.82 94.7366 1230.41 94.3819 1230.1 93.9385C1229.8 93.4951 1229.66 92.9483 1229.66 92.298C1229.66 91.3225 1230.02 90.5022 1230.74 89.8372C1231.48 89.1721 1232.53 88.8395 1233.89 88.8395C1235.25 88.8395 1236.34 89.1425 1237.15 89.7485C1237.96 90.3397 1238.43 91.2117 1238.55 92.3645H1235.95C1235.91 91.8767 1235.69 91.5146 1235.29 91.2782C1234.9 91.0417 1234.44 90.9235 1233.89 90.9235C1233.3 90.9235 1232.84 91.0417 1232.52 91.2782C1232.19 91.4999 1232.03 91.7807 1232.03 92.1206C1232.03 92.7266 1232.54 93.1182 1233.56 93.2956C1233.71 93.3251 1233.89 93.3621 1234.11 93.4064C1234.35 93.436 1234.58 93.4729 1234.82 93.5173C1235.06 93.5468 1235.26 93.5764 1235.42 93.6059C1235.82 93.6503 1236.22 93.739 1236.62 93.872C1237.03 94.005 1237.41 94.1897 1237.75 94.4262C1238.09 94.6479 1238.35 94.9435 1238.55 95.313C1238.75 95.6825 1238.86 96.148 1238.86 96.7097C1238.86 97.4339 1238.67 98.0694 1238.3 98.6162C1237.95 99.1631 1237.42 99.5917 1236.73 99.902C1236.03 100.212 1235.19 100.368 1234.2 100.368ZM1254.61 100.368C1253.06 100.368 1251.72 100.035 1250.6 99.37C1249.48 98.6901 1248.61 97.7516 1248.01 96.5545C1247.42 95.3425 1247.12 93.9459 1247.12 92.3645C1247.12 90.7683 1247.42 89.3716 1248.01 88.1745C1248.61 86.9625 1249.48 86.0166 1250.6 85.3368C1251.72 84.6569 1253.06 84.317 1254.61 84.317C1256.46 84.317 1257.97 84.7752 1259.14 85.6915C1260.32 86.593 1261.06 87.8715 1261.35 89.5268H1258.43C1258.23 88.64 1257.81 87.9528 1257.16 87.465C1256.51 86.9625 1255.66 86.7113 1254.59 86.7113C1253.6 86.7113 1252.75 86.9404 1252.04 87.3985C1251.33 87.8419 1250.79 88.4922 1250.4 89.3494C1250.02 90.1919 1249.82 91.1969 1249.82 92.3645C1249.82 93.532 1250.02 94.5371 1250.4 95.3795C1250.79 96.2071 1251.33 96.8501 1252.04 97.3082C1252.75 97.7664 1253.6 97.9955 1254.59 97.9955C1255.66 97.9955 1256.5 97.759 1257.14 97.2861C1257.79 96.7983 1258.22 96.1185 1258.43 95.2465H1261.37C1261.06 96.8574 1260.32 98.1137 1259.14 99.0153C1257.97 99.9168 1256.46 100.368 1254.61 100.368ZM1268.01 100.368C1266.9 100.368 1265.92 100.131 1265.06 99.6582C1264.22 99.1704 1263.56 98.498 1263.07 97.6408C1262.59 96.7836 1262.36 95.7933 1262.36 94.6701C1262.36 93.532 1262.59 92.527 1263.07 91.655C1263.54 90.7683 1264.21 90.081 1265.06 89.5933C1265.92 89.0908 1266.91 88.8395 1268.03 88.8395C1269.11 88.8395 1270.06 89.076 1270.87 89.549C1271.7 90.0219 1272.33 90.6648 1272.78 91.4777C1273.24 92.2758 1273.46 93.1773 1273.46 94.1823C1273.46 94.3301 1273.46 94.4927 1273.46 94.6701C1273.46 94.8474 1273.45 95.0396 1273.42 95.2465H1264.29V93.5173H1270.78C1270.74 92.7487 1270.46 92.1428 1269.94 91.6994C1269.42 91.2412 1268.79 91.0121 1268.03 91.0121C1267.49 91.0121 1266.98 91.1378 1266.5 91.389C1266.05 91.6255 1265.68 91.9876 1265.4 92.4753C1265.11 92.9483 1264.97 93.5542 1264.97 94.2932V94.9361C1264.97 95.616 1265.11 96.1998 1265.37 96.6875C1265.65 97.1752 1266.02 97.5447 1266.48 97.796C1266.94 98.0472 1267.45 98.1728 1268.01 98.1728C1268.62 98.1728 1269.13 98.0398 1269.54 97.7738C1269.95 97.493 1270.26 97.1235 1270.45 96.6653H1273.15C1272.96 97.3747 1272.62 98.0103 1272.13 98.5719C1271.66 99.1187 1271.08 99.5547 1270.38 99.8799C1269.69 100.205 1268.9 100.368 1268.01 100.368ZM1275.14 100.102V89.1056H1277.8V90.8126C1278.17 90.2066 1278.67 89.7263 1279.29 89.3716C1279.92 89.0169 1280.65 88.8395 1281.46 88.8395C1282.82 88.8395 1283.88 89.2681 1284.63 90.1254C1285.38 90.9678 1285.76 92.2093 1285.76 93.8498V100.102H1283.1V94.1158C1283.1 93.1256 1282.89 92.3792 1282.48 91.8767C1282.08 91.3595 1281.47 91.1008 1280.64 91.1008C1279.83 91.1008 1279.15 91.389 1278.6 91.9654C1278.07 92.5418 1277.8 93.3621 1277.8 94.4262V100.102H1275.14ZM1291.74 100.102C1291.03 100.102 1290.43 100.02 1289.94 99.8577C1289.46 99.6803 1289.09 99.3552 1288.84 98.8822C1288.58 98.4093 1288.46 97.7221 1288.46 96.8205V91.3447H1286.57V89.1056H1288.46V86.2236H1291.12V89.1056H1294V91.3447H1291.12V96.4658C1291.12 96.8648 1291.16 97.1604 1291.23 97.3526C1291.32 97.5447 1291.47 97.6777 1291.67 97.7516C1291.88 97.8107 1292.18 97.8403 1292.58 97.8403H1293.89V100.102H1291.74ZM1300.1 100.368C1298.99 100.368 1298 100.131 1297.15 99.6582C1296.31 99.1704 1295.64 98.498 1295.15 97.6408C1294.68 96.7836 1294.44 95.7933 1294.44 94.6701C1294.44 93.532 1294.68 92.527 1295.15 91.655C1295.63 90.7683 1296.29 90.081 1297.15 89.5933C1298 89.0908 1299 88.8395 1300.12 88.8395C1301.2 88.8395 1302.14 89.076 1302.96 89.549C1303.78 90.0219 1304.42 90.6648 1304.86 91.4777C1305.32 92.2758 1305.55 93.1773 1305.55 94.1823C1305.55 94.3301 1305.55 94.4927 1305.55 94.6701C1305.55 94.8474 1305.54 95.0396 1305.51 95.2465H1296.37V93.5173H1302.87C1302.82 92.7487 1302.54 92.1428 1302.02 91.6994C1301.51 91.2412 1300.87 91.0121 1300.12 91.0121C1299.57 91.0121 1299.06 91.1378 1298.59 91.389C1298.13 91.6255 1297.76 91.9876 1297.48 92.4753C1297.2 92.9483 1297.06 93.5542 1297.06 94.2932V94.9361C1297.06 95.616 1297.19 96.1998 1297.46 96.6875C1297.74 97.1752 1298.11 97.5447 1298.57 97.796C1299.02 98.0472 1299.53 98.1728 1300.1 98.1728C1300.7 98.1728 1301.21 98.0398 1301.63 97.7738C1302.04 97.493 1302.34 97.1235 1302.53 96.6653H1305.24C1305.05 97.3747 1304.71 98.0103 1304.22 98.5719C1303.75 99.1187 1303.16 99.5547 1302.47 99.8799C1301.77 100.205 1300.98 100.368 1300.1 100.368ZM1307.23 100.102V89.1056H1309.89V90.7904C1310.17 90.2436 1310.53 89.815 1310.97 89.5046C1311.42 89.1795 1311.93 89.0169 1312.5 89.0169H1313.99V91.389H1312.24C1311.72 91.389 1311.28 91.5294 1310.93 91.8102C1310.59 92.0763 1310.33 92.4975 1310.15 93.0739C1309.98 93.6355 1309.89 94.3449 1309.89 95.2021V100.102H1307.23Z" fill="white"/>
<path opacity="0.8" d="M1339.5 90.3458L1334.09 94.8573L1328.67 90.3458" stroke="white" stroke-width="3" stroke-linecap="round" stroke-linejoin="round"/>
<path d="M1417.25 100.102V84.583H1418.8V100.102H1417.25ZM1422.16 100.102V89.1056H1423.71V91.0121C1424.08 90.3323 1424.6 89.8002 1425.26 89.4159C1425.93 89.0317 1426.66 88.8395 1427.48 88.8395C1428.75 88.8395 1429.78 89.2238 1430.56 89.9923C1431.34 90.7609 1431.73 91.9654 1431.73 93.6059V100.102H1430.18V93.7833C1430.18 92.5714 1429.92 91.6698 1429.41 91.0786C1428.9 90.4875 1428.17 90.1919 1427.21 90.1919C1426.21 90.1919 1425.37 90.554 1424.71 91.2782C1424.04 92.0024 1423.71 93.0443 1423.71 94.404V100.102H1422.16ZM1438.79 100.368C1437.51 100.368 1436.42 100.072 1435.54 99.4808C1434.65 98.8749 1434.12 97.9437 1433.96 96.6875H1435.58C1435.7 97.4117 1436.04 97.9807 1436.6 98.3945C1437.18 98.8084 1437.92 99.0153 1438.84 99.0153C1439.67 99.0153 1440.31 98.8305 1440.77 98.461C1441.23 98.0915 1441.45 97.6186 1441.45 97.0422C1441.45 96.6136 1441.32 96.2958 1441.06 96.0889C1440.79 95.8672 1440.29 95.6825 1439.55 95.5347C1439.24 95.4608 1438.93 95.4017 1438.62 95.3573C1438.32 95.2982 1438.02 95.2391 1437.71 95.18C1437.25 95.0913 1436.78 94.9361 1436.29 94.7144C1435.8 94.4927 1435.39 94.175 1435.05 93.7611C1434.72 93.3325 1434.56 92.7783 1434.56 92.0984C1434.56 91.1673 1434.91 90.3914 1435.62 89.7706C1436.35 89.1499 1437.3 88.8395 1438.48 88.8395C1439.61 88.8395 1440.55 89.0982 1441.32 89.6155C1442.1 90.1327 1442.56 90.99 1442.67 92.1871H1441.1C1441.04 91.4629 1440.77 90.953 1440.28 90.6574C1439.79 90.3471 1439.18 90.1919 1438.44 90.1919C1437.77 90.1919 1437.21 90.3544 1436.75 90.6796C1436.31 90.99 1436.09 91.4038 1436.09 91.9211C1436.09 92.867 1436.74 93.4655 1438.04 93.7168C1438.23 93.7464 1438.42 93.7833 1438.59 93.8276C1438.79 93.8572 1438.97 93.8941 1439.15 93.9385C1439.34 93.968 1439.53 93.9976 1439.7 94.0272C1440.01 94.0715 1440.35 94.1454 1440.72 94.2489C1441.09 94.3523 1441.45 94.5075 1441.79 94.7144C1442.14 94.9213 1442.43 95.2021 1442.65 95.5568C1442.87 95.8968 1442.98 96.3476 1442.98 96.9092C1442.98 97.5743 1442.81 98.1654 1442.45 98.6827C1442.11 99.2 1441.62 99.6138 1440.99 99.9242C1440.37 100.22 1439.64 100.368 1438.79 100.368ZM1445.71 100.102V89.1056H1447.27V100.102H1445.71ZM1445.36 86.8665V84.583H1447.58V86.8665H1445.36ZM1455.47 105.245C1454.49 105.245 1453.61 105.075 1452.83 104.735C1452.06 104.395 1451.42 103.915 1450.9 103.294C1450.4 102.688 1450.06 101.964 1449.9 101.121H1451.43C1451.68 101.934 1452.17 102.599 1452.89 103.117C1453.62 103.634 1454.48 103.893 1455.47 103.893C1456.23 103.893 1456.92 103.723 1457.53 103.383C1458.15 103.057 1458.64 102.562 1458.99 101.897C1459.35 101.232 1459.52 100.419 1459.52 99.4587V97.796C1459.29 98.2246 1458.96 98.6384 1458.55 99.0374C1458.15 99.4217 1457.66 99.7395 1457.08 99.9907C1456.51 100.242 1455.84 100.368 1455.09 100.368C1454.07 100.368 1453.14 100.116 1452.3 99.6138C1451.45 99.1113 1450.78 98.4241 1450.28 97.5521C1449.79 96.6801 1449.55 95.6899 1449.55 94.5814C1449.55 93.4729 1449.79 92.4901 1450.28 91.6329C1450.78 90.7609 1451.45 90.081 1452.3 89.5933C1453.14 89.0908 1454.08 88.8395 1455.11 88.8395C1456.13 88.8395 1457.03 89.076 1457.79 89.549C1458.56 90.0071 1459.14 90.5614 1459.52 91.2117V89.1056H1461.07V99.4587C1461.07 100.641 1460.84 101.661 1460.37 102.518C1459.89 103.39 1459.23 104.062 1458.39 104.535C1457.55 105.008 1456.57 105.245 1455.47 105.245ZM1455.29 99.0153C1456.07 99.0153 1456.77 98.8305 1457.39 98.461C1458.03 98.0915 1458.53 97.5743 1458.88 96.9092C1459.25 96.2293 1459.43 95.4534 1459.43 94.5814C1459.43 93.6946 1459.25 92.9261 1458.88 92.2758C1458.53 91.6107 1458.03 91.1008 1457.39 90.7461C1456.77 90.3766 1456.07 90.1919 1455.29 90.1919C1454.51 90.1919 1453.8 90.3766 1453.16 90.7461C1452.54 91.1008 1452.04 91.6107 1451.68 92.2758C1451.32 92.9261 1451.14 93.6946 1451.14 94.5814C1451.14 95.4534 1451.32 96.2293 1451.68 96.9092C1452.04 97.5743 1452.54 98.0915 1453.16 98.461C1453.8 98.8305 1454.51 99.0153 1455.29 99.0153ZM1464 100.102V84.1396H1465.56V91.0565C1465.94 90.3618 1466.47 89.8224 1467.15 89.4381C1467.85 89.0391 1468.59 88.8395 1469.39 88.8395C1470.63 88.8395 1471.64 89.2238 1472.41 89.9923C1473.19 90.7609 1473.58 91.9654 1473.58 93.6059V100.102H1472.05V93.7833C1472.05 92.5714 1471.81 91.6698 1471.32 91.0786C1470.83 90.4875 1470.11 90.1919 1469.15 90.1919C1468.14 90.1919 1467.29 90.554 1466.6 91.2782C1465.9 92.0024 1465.56 93.0443 1465.56 94.404V100.102H1464ZM1479.69 100.102C1479.13 100.102 1478.65 100.028 1478.25 99.8799C1477.87 99.7321 1477.57 99.466 1477.36 99.0818C1477.17 98.6827 1477.08 98.1211 1477.08 97.3969V90.4357H1475.17V89.1056H1477.08V86.5561H1478.63V89.1056H1481.91V90.4357H1478.63V97.1087C1478.63 97.6408 1478.67 98.025 1478.74 98.2615C1478.83 98.498 1478.99 98.6458 1479.23 98.7049C1479.48 98.7492 1479.86 98.7714 1480.36 98.7714H1481.71V100.102H1479.69ZM1488.18 100.368C1486.89 100.368 1485.8 100.072 1484.92 99.4808C1484.03 98.8749 1483.51 97.9437 1483.34 96.6875H1484.96C1485.08 97.4117 1485.42 97.9807 1485.98 98.3945C1486.56 98.8084 1487.31 99.0153 1488.22 99.0153C1489.05 99.0153 1489.69 98.8305 1490.15 98.461C1490.61 98.0915 1490.84 97.6186 1490.84 97.0422C1490.84 96.6136 1490.7 96.2958 1490.44 96.0889C1490.17 95.8672 1489.67 95.6825 1488.93 95.5347C1488.62 95.4608 1488.31 95.4017 1488 95.3573C1487.7 95.2982 1487.4 95.2391 1487.09 95.18C1486.63 95.0913 1486.16 94.9361 1485.67 94.7144C1485.18 94.4927 1484.77 94.175 1484.43 93.7611C1484.11 93.3325 1483.94 92.7783 1483.94 92.0984C1483.94 91.1673 1484.3 90.3914 1485.01 89.7706C1485.73 89.1499 1486.68 88.8395 1487.87 88.8395C1488.99 88.8395 1489.94 89.0982 1490.7 89.6155C1491.49 90.1327 1491.94 90.99 1492.06 92.1871H1490.48C1490.42 91.4629 1490.15 90.953 1489.66 90.6574C1489.17 90.3471 1488.56 90.1919 1487.82 90.1919C1487.16 90.1919 1486.6 90.3544 1486.14 90.6796C1485.69 90.99 1485.47 91.4038 1485.47 91.9211C1485.47 92.867 1486.12 93.4655 1487.42 93.7168C1487.62 93.7464 1487.8 93.7833 1487.98 93.8276C1488.17 93.8572 1488.35 93.8941 1488.53 93.9385C1488.72 93.968 1488.91 93.9976 1489.09 94.0272C1489.4 94.0715 1489.74 94.1454 1490.11 94.2489C1490.48 94.3523 1490.83 94.5075 1491.17 94.7144C1491.52 94.9213 1491.81 95.2021 1492.03 95.5568C1492.26 95.8968 1492.37 96.3476 1492.37 96.9092C1492.37 97.5743 1492.19 98.1654 1491.83 98.6827C1491.5 99.2 1491.01 99.6138 1490.37 99.9242C1489.75 100.22 1489.02 100.368 1488.18 100.368Z" fill="white"/>
<path d="M1576.68 100.368C1575.18 100.368 1573.87 100.035 1572.76 99.37C1571.67 98.6901 1570.82 97.7516 1570.21 96.5545C1569.62 95.3425 1569.32 93.9385 1569.32 92.3423C1569.32 90.7461 1569.62 89.3494 1570.21 88.1523C1570.82 86.9404 1571.67 86.0019 1572.76 85.3368C1573.87 84.6569 1575.18 84.317 1576.68 84.317C1578.44 84.317 1579.86 84.7308 1580.94 85.5585C1582.02 86.3713 1582.72 87.5242 1583.05 89.0169H1581.32C1581.08 88.0119 1580.58 87.2064 1579.81 86.6004C1579.04 85.9797 1578 85.6693 1576.68 85.6693C1575.53 85.6693 1574.52 85.9354 1573.65 86.4674C1572.79 86.9995 1572.12 87.768 1571.63 88.773C1571.16 89.7633 1570.92 90.953 1570.92 92.3423C1570.92 93.7316 1571.16 94.9287 1571.63 95.9337C1572.12 96.924 1572.79 97.6851 1573.65 98.2172C1574.52 98.7492 1575.53 99.0153 1576.68 99.0153C1578 99.0153 1579.04 98.7123 1579.81 98.1063C1580.59 97.5004 1581.13 96.6358 1581.41 95.5125H1583.14C1582.78 97.0791 1582.06 98.2837 1580.96 99.1261C1579.87 99.9538 1578.44 100.368 1576.68 100.368ZM1590.24 100.368C1589.17 100.368 1588.22 100.131 1587.38 99.6582C1586.54 99.1852 1585.87 98.5201 1585.38 97.6629C1584.91 96.7909 1584.67 95.7712 1584.67 94.6036C1584.67 93.4212 1584.92 92.4014 1585.41 91.5442C1585.89 90.687 1586.56 90.0219 1587.4 89.549C1588.26 89.076 1589.22 88.8395 1590.28 88.8395C1591.36 88.8395 1592.31 89.076 1593.14 89.549C1593.98 90.0219 1594.64 90.687 1595.12 91.5442C1595.6 92.4014 1595.85 93.4212 1595.85 94.6036C1595.85 95.7712 1595.6 96.7909 1595.12 97.6629C1594.63 98.5201 1593.96 99.1852 1593.12 99.6582C1592.28 100.131 1591.32 100.368 1590.24 100.368ZM1590.24 99.0374C1590.96 99.0374 1591.63 98.8749 1592.23 98.5497C1592.84 98.2098 1593.33 97.7147 1593.7 97.0644C1594.07 96.3993 1594.25 95.579 1594.25 94.6036C1594.25 93.6133 1594.07 92.7931 1593.7 92.1428C1593.34 91.4925 1592.86 91.0047 1592.26 90.6796C1591.65 90.3397 1590.99 90.1697 1590.28 90.1697C1589.57 90.1697 1588.91 90.3397 1588.29 90.6796C1587.68 91.0047 1587.19 91.4925 1586.82 92.1428C1586.45 92.7931 1586.27 93.6133 1586.27 94.6036C1586.27 95.579 1586.45 96.3993 1586.82 97.0644C1587.19 97.7147 1587.67 98.2098 1588.27 98.5497C1588.87 98.8749 1589.53 99.0374 1590.24 99.0374ZM1598.18 100.102V89.1056H1599.73V91.0121C1600.1 90.3323 1600.62 89.8002 1601.28 89.4159C1601.95 89.0317 1602.69 88.8395 1603.5 88.8395C1604.77 88.8395 1605.8 89.2238 1606.58 89.9923C1607.36 90.7609 1607.76 91.9654 1607.76 93.6059V100.102H1606.2V93.7833C1606.2 92.5714 1605.95 91.6698 1605.43 91.0786C1604.93 90.4875 1604.19 90.1919 1603.23 90.1919C1602.23 90.1919 1601.39 90.554 1600.73 91.2782C1600.06 92.0024 1599.73 93.0443 1599.73 94.404V100.102H1598.18ZM1613.78 100.102C1613.22 100.102 1612.74 100.028 1612.34 99.8799C1611.95 99.7321 1611.66 99.466 1611.45 99.0818C1611.26 98.6827 1611.16 98.1211 1611.16 97.3969V90.4357H1609.26V89.1056H1611.16V86.5561H1612.71V89.1056H1616V90.4357H1612.71V97.1087C1612.71 97.6408 1612.75 98.025 1612.83 98.2615C1612.91 98.498 1613.08 98.6458 1613.31 98.7049C1613.56 98.7492 1613.94 98.7714 1614.44 98.7714H1615.8V100.102H1613.78ZM1621.4 100.368C1620.49 100.368 1619.72 100.212 1619.12 99.902C1618.51 99.5917 1618.06 99.1852 1617.77 98.6827C1617.47 98.1654 1617.32 97.626 1617.32 97.0644C1617.32 95.8524 1617.76 94.9287 1618.63 94.2932C1619.52 93.6577 1620.68 93.3399 1622.11 93.3399C1622.72 93.3399 1623.29 93.3916 1623.82 93.4951C1624.35 93.5838 1624.79 93.6872 1625.13 93.8055V93.3399C1625.13 92.3053 1624.86 91.522 1624.33 90.99C1623.81 90.4431 1623.1 90.1697 1622.2 90.1697C1621.43 90.1697 1620.77 90.3323 1620.2 90.6574C1619.66 90.9678 1619.32 91.4999 1619.18 92.2536H1617.57C1617.65 91.4555 1617.93 90.8052 1618.39 90.3027C1618.84 89.8002 1619.41 89.4307 1620.07 89.1942C1620.75 88.9578 1621.46 88.8395 1622.2 88.8395C1623.72 88.8395 1624.84 89.2608 1625.57 90.1032C1626.31 90.9308 1626.68 92.0098 1626.68 93.3399V97.0422C1626.68 97.5743 1626.71 97.9585 1626.77 98.195C1626.84 98.4315 1626.96 98.5793 1627.12 98.6384C1627.3 98.6827 1627.53 98.7049 1627.83 98.7049H1628.01V100.102H1627.68C1627 100.102 1626.43 99.9759 1625.99 99.7247C1625.56 99.4734 1625.29 98.9635 1625.17 98.195C1624.84 98.801 1624.38 99.3182 1623.77 99.7469C1623.18 100.161 1622.39 100.368 1621.4 100.368ZM1621.56 99.0374C1622.3 99.0374 1622.93 98.8453 1623.46 98.461C1624 98.0768 1624.4 97.5816 1624.68 96.9757C1624.98 96.3697 1625.13 95.7342 1625.13 95.0691C1624.77 94.9657 1624.33 94.8696 1623.8 94.7809C1623.28 94.6922 1622.75 94.6479 1622.22 94.6479C1621.01 94.6479 1620.15 94.877 1619.65 95.3352C1619.15 95.7933 1618.9 96.3549 1618.9 97.02C1618.9 97.5964 1619.13 98.0768 1619.58 98.461C1620.04 98.8453 1620.7 99.0374 1621.56 99.0374ZM1634.92 100.368C1633.9 100.368 1632.98 100.131 1632.15 99.6582C1631.34 99.1704 1630.69 98.498 1630.2 97.6408C1629.73 96.7688 1629.49 95.7564 1629.49 94.6036C1629.49 93.436 1629.73 92.4236 1630.2 91.5664C1630.69 90.7092 1631.34 90.0441 1632.15 89.5711C1632.98 89.0834 1633.9 88.8395 1634.92 88.8395C1636.21 88.8395 1637.28 89.1721 1638.13 89.8372C1639.01 90.5022 1639.56 91.3816 1639.8 92.4753H1638.25C1638.08 91.7363 1637.69 91.1673 1637.07 90.7683C1636.46 90.3692 1635.75 90.1697 1634.92 90.1697C1634.27 90.1697 1633.65 90.3397 1633.06 90.6796C1632.47 91.0047 1631.99 91.4925 1631.62 92.1428C1631.26 92.7931 1631.09 93.6133 1631.09 94.6036C1631.09 95.579 1631.26 96.3993 1631.62 97.0644C1631.99 97.7147 1632.47 98.2098 1633.06 98.5497C1633.65 98.8749 1634.27 99.0374 1634.92 99.0374C1635.75 99.0374 1636.46 98.8379 1637.07 98.4389C1637.69 98.0398 1638.08 97.4708 1638.25 96.7318H1639.8C1639.58 97.796 1639.03 98.6679 1638.16 99.3478C1637.29 100.028 1636.21 100.368 1634.92 100.368ZM1645.45 100.102C1644.89 100.102 1644.41 100.028 1644.01 99.8799C1643.63 99.7321 1643.33 99.466 1643.12 99.0818C1642.93 98.6827 1642.84 98.1211 1642.84 97.3969V90.4357H1640.93V89.1056H1642.84V86.5561H1644.39V89.1056H1647.67V90.4357H1644.39V97.1087C1644.39 97.6408 1644.43 98.025 1644.5 98.2615C1644.59 98.498 1644.75 98.6458 1644.99 98.7049C1645.24 98.7492 1645.62 98.7714 1646.12 98.7714H1647.47V100.102H1645.45Z" fill="white"/>
<path opacity="0.8" d="M1625.27 961.855V952.264H1627.19L1631.53 958.772V952.264H1633.45V961.855H1631.53L1627.19 955.374V961.855H1625.27Z" fill="white"/>
<circle cx="1629.63" cy="956.855" r="17.75" transform="rotate(-84.3208 1629.63 956.855)" stroke="white"/>
<line x1="1618.83" y1="942.463" x2="1624.69" y2="949.619" stroke="white"/>
<path d="M1179.61 274.333C1174.82 274.333 1170.67 273.297 1167.17 271.224C1163.67 269.105 1160.97 266.179 1159.08 262.448C1157.24 258.67 1156.32 254.317 1156.32 249.388C1156.32 244.413 1157.24 240.06 1159.08 236.328C1160.97 232.551 1163.67 229.602 1167.17 227.483C1170.67 225.364 1174.82 224.305 1179.61 224.305C1185.32 224.305 1189.97 225.71 1193.56 228.52C1197.16 231.284 1199.44 235.176 1200.41 240.198H1191.98C1191.38 237.388 1190.02 235.176 1187.9 233.564C1185.83 231.952 1183.04 231.146 1179.54 231.146C1176.36 231.146 1173.62 231.883 1171.31 233.357C1169.01 234.785 1167.21 236.881 1165.92 239.645C1164.68 242.363 1164.06 245.611 1164.06 249.388C1164.06 253.165 1164.68 256.413 1165.92 259.131C1167.21 261.803 1169.01 263.876 1171.31 265.35C1173.62 266.824 1176.36 267.561 1179.54 267.561C1183.04 267.561 1185.83 266.778 1187.9 265.212C1189.97 263.646 1191.35 261.411 1192.04 258.509H1200.47C1199.51 263.53 1197.2 267.423 1193.56 270.187C1189.97 272.951 1185.32 274.333 1179.61 274.333ZM1204.57 273.504V223.752H1212.17V273.504H1204.57ZM1217.44 273.504V239.23H1225.04V273.504H1217.44ZM1217.23 233.15V224.927H1225.31V233.15H1217.23ZM1246.19 274.333C1242.78 274.333 1239.74 273.573 1237.07 272.053C1234.45 270.533 1232.37 268.437 1230.85 265.765C1229.33 263.047 1228.57 259.914 1228.57 256.367C1228.57 252.82 1229.33 249.71 1230.85 247.039C1232.37 244.321 1234.45 242.202 1237.07 240.681C1239.74 239.161 1242.78 238.401 1246.19 238.401C1250.43 238.401 1254 239.507 1256.9 241.718C1259.81 243.929 1261.65 246.946 1262.43 250.77H1254.55C1254.09 248.927 1253.1 247.499 1251.58 246.486C1250.06 245.426 1248.24 244.897 1246.12 244.897C1244.42 244.897 1242.81 245.357 1241.29 246.279C1239.81 247.154 1238.62 248.444 1237.69 250.148C1236.82 251.807 1236.38 253.88 1236.38 256.367C1236.38 258.809 1236.82 260.905 1237.69 262.655C1238.62 264.36 1239.81 265.65 1241.29 266.525C1242.81 267.4 1244.42 267.838 1246.12 267.838C1248.24 267.838 1250.06 267.331 1251.58 266.318C1253.1 265.304 1254.09 263.853 1254.55 261.964H1262.43C1261.69 265.65 1259.85 268.644 1256.9 270.947C1254 273.204 1250.43 274.333 1246.19 274.333ZM1273.15 262.863L1270.18 257.542L1287.66 239.23H1296.71L1273.15 262.863ZM1266.17 273.504V223.752H1273.77V273.504H1266.17ZM1289.46 273.504L1275.77 255.814L1280.47 251.116L1298.85 273.504H1289.46ZM1333.36 273.504C1331.24 273.504 1329.45 273.251 1327.97 272.744C1326.5 272.237 1325.39 271.27 1324.66 269.842C1323.92 268.414 1323.55 266.341 1323.55 263.623V245.657H1317.68V239.23H1323.55V230.455H1331.15V239.23H1340.34V245.657H1331.15V262.586C1331.15 263.922 1331.27 264.912 1331.5 265.557C1331.77 266.156 1332.23 266.548 1332.88 266.732C1333.57 266.916 1334.56 267.009 1335.85 267.009H1340V273.504H1333.36ZM1358.46 274.333C1355.05 274.333 1351.99 273.596 1349.27 272.122C1346.55 270.602 1344.38 268.483 1342.77 265.765C1341.21 263.047 1340.42 259.914 1340.42 256.367C1340.42 252.774 1341.21 249.641 1342.77 246.97C1344.38 244.252 1346.55 242.156 1349.27 240.681C1352.03 239.161 1355.09 238.401 1358.46 238.401C1361.91 238.401 1364.98 239.161 1367.65 240.681C1370.37 242.156 1372.51 244.252 1374.07 246.97C1375.69 249.641 1376.49 252.774 1376.49 256.367C1376.49 259.914 1375.69 263.047 1374.07 265.765C1372.51 268.483 1370.37 270.602 1367.65 272.122C1364.93 273.596 1361.87 274.333 1358.46 274.333ZM1358.39 267.769C1360.28 267.769 1361.98 267.354 1363.5 266.525C1365.07 265.65 1366.31 264.383 1367.23 262.724C1368.15 261.02 1368.62 258.901 1368.62 256.367C1368.62 253.833 1368.15 251.737 1367.23 250.079C1366.31 248.375 1365.07 247.108 1363.5 246.279C1361.98 245.403 1360.32 244.966 1358.53 244.966C1356.68 244.966 1354.98 245.403 1353.41 246.279C1351.85 247.108 1350.6 248.375 1349.68 250.079C1348.76 251.737 1348.3 253.833 1348.3 256.367C1348.3 258.901 1348.76 261.02 1349.68 262.724C1350.6 264.383 1351.82 265.65 1353.34 266.525C1354.91 267.354 1356.59 267.769 1358.39 267.769ZM1399.87 273.504V225.134H1430.69V231.284H1407.47V246.002H1428.61V252.083H1407.47V267.354H1430.69V273.504H1399.87ZM1432.81 273.504L1445.04 256.367L1432.81 239.23H1440.96L1450.08 252.221L1459.06 239.23H1467.22L1454.99 256.367L1467.22 273.504H1459.06L1450.08 260.513L1440.96 273.504H1432.81ZM1471.2 288.706V239.23H1478.8V244.482C1479.91 242.87 1481.43 241.465 1483.36 240.267C1485.3 239.023 1487.74 238.401 1490.69 238.401C1494 238.401 1496.93 239.184 1499.46 240.751C1502 242.317 1503.98 244.459 1505.41 247.177C1506.88 249.895 1507.62 252.981 1507.62 256.436C1507.62 259.845 1506.88 262.909 1505.41 265.627C1503.98 268.344 1502 270.487 1499.46 272.053C1496.93 273.573 1494 274.333 1490.69 274.333C1488.02 274.333 1485.67 273.803 1483.64 272.744C1481.61 271.684 1480 270.233 1478.8 268.391V288.706H1471.2ZM1489.31 267.7C1491.38 267.7 1493.2 267.216 1494.76 266.248C1496.38 265.281 1497.62 263.968 1498.5 262.31C1499.42 260.605 1499.88 258.647 1499.88 256.436C1499.88 254.179 1499.42 252.198 1498.5 250.494C1497.62 248.743 1496.38 247.407 1494.76 246.486C1493.2 245.518 1491.38 245.035 1489.31 245.035C1487.23 245.035 1485.39 245.518 1483.78 246.486C1482.21 247.407 1480.97 248.72 1480.05 250.425C1479.17 252.129 1478.73 254.11 1478.73 256.367C1478.73 258.624 1479.17 260.605 1480.05 262.31C1480.97 263.968 1482.21 265.281 1483.78 266.248C1485.39 267.216 1487.23 267.7 1489.31 267.7ZM1511.13 273.504V223.752H1518.73V273.504H1511.13ZM1540.37 274.333C1536.96 274.333 1533.89 273.596 1531.18 272.122C1528.46 270.602 1526.29 268.483 1524.68 265.765C1523.12 263.047 1522.33 259.914 1522.33 256.367C1522.33 252.774 1523.12 249.641 1524.68 246.97C1526.29 244.252 1528.46 242.156 1531.18 240.681C1533.94 239.161 1537 238.401 1540.37 238.401C1543.82 238.401 1546.89 239.161 1549.56 240.681C1552.28 242.156 1554.42 244.252 1555.98 246.97C1557.6 249.641 1558.4 252.774 1558.4 256.367C1558.4 259.914 1557.6 263.047 1555.98 265.765C1554.42 268.483 1552.28 270.602 1549.56 272.122C1546.84 273.596 1543.78 274.333 1540.37 274.333ZM1540.3 267.769C1542.19 267.769 1543.89 267.354 1545.41 266.525C1546.98 265.65 1548.22 264.383 1549.14 262.724C1550.06 261.02 1550.52 258.901 1550.52 256.367C1550.52 253.833 1550.06 251.737 1549.14 250.079C1548.22 248.375 1546.98 247.108 1545.41 246.279C1543.89 245.403 1542.23 244.966 1540.44 244.966C1538.59 244.966 1536.89 245.403 1535.32 246.279C1533.76 247.108 1532.51 248.375 1531.59 250.079C1530.67 251.737 1530.21 253.833 1530.21 256.367C1530.21 258.901 1530.67 261.02 1531.59 262.724C1532.51 264.383 1533.73 265.65 1535.25 266.525C1536.82 267.354 1538.5 267.769 1540.3 267.769ZM1561.95 273.504V239.23H1569.56V244.551C1570.38 242.8 1571.49 241.442 1572.87 240.474C1574.25 239.461 1575.87 238.954 1577.71 238.954H1582.48V245.795H1576.95C1575.38 245.795 1574.05 246.232 1572.94 247.108C1571.84 247.937 1570.98 249.25 1570.38 251.046C1569.83 252.843 1569.56 255.123 1569.56 257.887V273.504H1561.95ZM1598.87 274.333C1595.47 274.333 1592.45 273.596 1589.82 272.122C1587.24 270.602 1585.19 268.506 1583.67 265.834C1582.2 263.162 1581.46 260.052 1581.46 256.505C1581.46 252.958 1582.2 249.826 1583.67 247.108C1585.15 244.344 1587.2 242.202 1589.82 240.681C1592.45 239.161 1595.49 238.401 1598.94 238.401C1602.31 238.401 1605.23 239.138 1607.72 240.612C1610.25 242.086 1612.21 244.067 1613.59 246.555C1614.97 249.043 1615.67 251.83 1615.67 254.916C1615.67 255.377 1615.67 255.883 1615.67 256.436C1615.67 256.943 1615.62 257.519 1615.53 258.164H1587.06V253.05H1608.06C1607.93 250.471 1606.98 248.421 1605.23 246.9C1603.53 245.38 1601.43 244.62 1598.94 244.62C1597.15 244.62 1595.49 245.035 1593.97 245.864C1592.45 246.647 1591.23 247.822 1590.31 249.388C1589.38 250.908 1588.92 252.866 1588.92 255.262V257.196C1588.92 259.5 1589.38 261.481 1590.31 263.139C1591.23 264.751 1592.43 265.972 1593.9 266.801C1595.42 267.63 1597.08 268.045 1598.87 268.045C1600.9 268.045 1602.61 267.584 1603.99 266.663C1605.37 265.742 1606.38 264.498 1607.03 262.932H1614.7C1614.1 265.097 1613.06 267.055 1611.59 268.805C1610.16 270.51 1608.36 271.869 1606.2 272.882C1604.08 273.849 1601.64 274.333 1598.87 274.333ZM1335.08 350.333C1330.34 350.333 1326.19 349.297 1322.64 347.224C1319.1 345.105 1316.33 342.179 1314.35 338.448C1312.37 334.67 1311.38 330.294 1311.38 325.319C1311.38 320.39 1312.37 316.06 1314.35 312.328C1316.33 308.551 1319.1 305.602 1322.64 303.483C1326.19 301.364 1330.34 300.305 1335.08 300.305C1339.87 300.305 1344.04 301.364 1347.59 303.483C1351.14 305.602 1353.88 308.551 1355.81 312.328C1357.79 316.06 1358.78 320.39 1358.78 325.319C1358.78 330.294 1357.79 334.67 1355.81 338.448C1353.88 342.179 1351.14 345.105 1347.59 347.224C1344.04 349.297 1339.87 350.333 1335.08 350.333ZM1335.08 346.118C1338.81 346.118 1342.08 345.289 1344.89 343.63C1347.7 341.972 1349.89 339.6 1351.46 336.513C1353.02 333.381 1353.81 329.649 1353.81 325.319C1353.81 320.989 1353.02 317.28 1351.46 314.194C1349.89 311.107 1347.7 308.735 1344.89 307.077C1342.08 305.418 1338.81 304.589 1335.08 304.589C1331.4 304.589 1328.13 305.418 1325.27 307.077C1322.46 308.735 1320.27 311.107 1318.7 314.194C1317.14 317.28 1316.36 320.989 1316.36 325.319C1316.36 329.649 1317.14 333.381 1318.7 336.513C1320.27 339.6 1322.46 341.972 1325.27 343.63C1328.13 345.289 1331.4 346.118 1335.08 346.118ZM1375.87 350.333C1372.23 350.333 1369.21 349.135 1366.81 346.74C1364.47 344.344 1363.29 340.59 1363.29 335.477V315.23H1368.13V334.924C1368.13 338.701 1368.89 341.511 1370.41 343.354C1371.97 345.197 1374.07 346.118 1376.7 346.118C1379.83 346.118 1382.32 344.989 1384.16 342.732C1386 340.475 1386.92 337.227 1386.92 332.989V315.23H1391.76V349.504H1386.92V343.7C1385.91 345.819 1384.44 347.454 1382.5 348.606C1380.57 349.757 1378.35 350.333 1375.87 350.333ZM1399.04 349.504V315.23H1403.88V320.689C1404.61 318.893 1405.65 317.511 1406.98 316.543C1408.32 315.53 1409.98 315.023 1411.96 315.023H1417.49V319.653H1411.48C1410.09 319.653 1408.83 320.067 1407.68 320.897C1406.52 321.68 1405.6 323.016 1404.91 324.904C1404.22 326.747 1403.88 329.258 1403.88 332.436V349.504H1399.04ZM1443.61 349.504V301.134H1472.49V305.142H1448.44V323.246H1469.17V327.254H1448.44V349.504H1443.61ZM1477.51 349.504V299.752H1482.35V349.504H1477.51ZM1505.3 350.333C1501.98 350.333 1499.01 349.596 1496.39 348.122C1493.76 346.648 1491.69 344.575 1490.17 341.903C1488.69 339.185 1487.96 336.006 1487.96 332.367C1487.96 328.682 1488.72 325.503 1490.24 322.831C1491.76 320.159 1493.83 318.086 1496.46 316.612C1499.13 315.138 1502.12 314.401 1505.44 314.401C1508.8 314.401 1511.77 315.138 1514.35 316.612C1516.98 318.086 1519.03 320.159 1520.5 322.831C1522.02 325.503 1522.78 328.682 1522.78 332.367C1522.78 336.006 1522.02 339.185 1520.5 341.903C1518.98 344.575 1516.91 346.648 1514.28 348.122C1511.66 349.596 1508.66 350.333 1505.3 350.333ZM1505.3 346.187C1507.56 346.187 1509.63 345.68 1511.52 344.667C1513.41 343.607 1514.93 342.064 1516.08 340.037C1517.23 337.964 1517.81 335.408 1517.81 332.367C1517.81 329.281 1517.23 326.724 1516.08 324.697C1514.98 322.67 1513.48 321.15 1511.59 320.136C1509.7 319.077 1507.65 318.547 1505.44 318.547C1503.23 318.547 1501.16 319.077 1499.22 320.136C1497.33 321.15 1495.81 322.67 1494.66 324.697C1493.51 326.724 1492.93 329.281 1492.93 332.367C1492.93 335.408 1493.51 337.964 1494.66 340.037C1495.81 342.064 1497.31 343.607 1499.15 344.667C1501.04 345.68 1503.09 346.187 1505.3 346.187ZM1543.33 350.333C1540.02 350.333 1537.05 349.596 1534.42 348.122C1531.79 346.648 1529.72 344.575 1528.2 341.903C1526.73 339.185 1525.99 336.006 1525.99 332.367C1525.99 328.682 1526.75 325.503 1528.27 322.831C1529.79 320.159 1531.86 318.086 1534.49 316.612C1537.16 315.138 1540.16 314.401 1543.47 314.401C1546.84 314.401 1549.81 315.138 1552.39 316.612C1555.01 318.086 1557.06 320.159 1558.54 322.831C1560.06 325.503 1560.82 328.682 1560.82 332.367C1560.82 336.006 1560.06 339.185 1558.54 341.903C1557.02 344.575 1554.94 346.648 1552.32 348.122C1549.69 349.596 1546.7 350.333 1543.33 350.333ZM1543.33 346.187C1545.59 346.187 1547.66 345.68 1549.55 344.667C1551.44 343.607 1552.96 342.064 1554.11 340.037C1555.27 337.964 1555.84 335.408 1555.84 332.367C1555.84 329.281 1555.27 326.724 1554.11 324.697C1553.01 322.67 1551.51 321.15 1549.62 320.136C1547.73 319.077 1545.68 318.547 1543.47 318.547C1541.26 318.547 1539.19 319.077 1537.25 320.136C1535.37 321.15 1533.84 322.67 1532.69 324.697C1531.54 326.724 1530.97 329.281 1530.97 332.367C1530.97 335.408 1531.54 337.964 1532.69 340.037C1533.84 342.064 1535.34 343.607 1537.18 344.667C1539.07 345.68 1541.12 346.187 1543.33 346.187ZM1566.3 349.504V315.23H1571.14V320.689C1571.88 318.893 1572.91 317.511 1574.25 316.543C1575.59 315.53 1577.25 315.023 1579.23 315.023H1584.75V319.653H1578.74C1577.36 319.653 1576.09 320.067 1574.94 320.897C1573.79 321.68 1572.87 323.016 1572.18 324.904C1571.49 326.747 1571.14 329.258 1571.14 332.436V349.504H1566.3ZM1601.47 350.333C1597.46 350.333 1594.07 349.412 1591.31 347.569C1588.55 345.68 1586.91 342.778 1586.4 338.863H1591.45C1591.82 341.12 1592.88 342.893 1594.63 344.183C1596.42 345.473 1598.75 346.118 1601.61 346.118C1604.19 346.118 1606.19 345.542 1607.62 344.391C1609.05 343.239 1609.76 341.765 1609.76 339.968C1609.76 338.632 1609.34 337.642 1608.52 336.997C1607.69 336.306 1606.12 335.73 1603.82 335.269C1602.85 335.039 1601.88 334.855 1600.91 334.717C1599.99 334.532 1599.05 334.348 1598.08 334.164C1596.65 333.887 1595.18 333.404 1593.66 332.713C1592.14 332.022 1590.85 331.031 1589.79 329.741C1588.78 328.405 1588.27 326.678 1588.27 324.559C1588.27 321.657 1589.37 319.238 1591.59 317.303C1593.84 315.369 1596.81 314.401 1600.5 314.401C1604 314.401 1606.95 315.207 1609.34 316.82C1611.79 318.432 1613.19 321.104 1613.56 324.835H1608.65C1608.47 322.578 1607.62 320.989 1606.1 320.067C1604.58 319.1 1602.67 318.616 1600.36 318.616C1598.29 318.616 1596.54 319.123 1595.11 320.136C1593.73 321.104 1593.04 322.394 1593.04 324.006C1593.04 326.954 1595.06 328.82 1599.12 329.603C1599.72 329.695 1600.29 329.81 1600.85 329.949C1601.44 330.041 1602.02 330.156 1602.57 330.294C1603.17 330.386 1603.75 330.478 1604.3 330.571C1605.27 330.709 1606.33 330.939 1607.48 331.262C1608.63 331.584 1609.74 332.068 1610.8 332.713C1611.9 333.358 1612.8 334.233 1613.49 335.338C1614.18 336.398 1614.53 337.803 1614.53 339.554C1614.53 341.627 1613.97 343.469 1612.87 345.082C1611.81 346.694 1610.29 347.984 1608.31 348.951C1606.37 349.872 1604.09 350.333 1601.47 350.333Z" fill="white"/>
<g opacity="0.4" style="mix-blend-mode:soft-light">
<path d="M187.5 871.5V902.5L370 894.25V890L415.5 887.5L669 877L777.75 880L837 881.5V850.75H847.5V847.75H841V844L803 842.75V839L669 831L595.472 836V838.095L535.5 840.25V844.875H504.5L465.375 845.625V849.875L415.5 852.75V859.5H366L332.5 861.5L302.75 864.75H284.25L262.75 866L236 867.5L221.75 869.5L187.5 871.5Z" fill="white"/>
</g>
<g opacity="0.4" style="mix-blend-mode:soft-light">
<path d="M187.5 836.748V871.248L220.625 869.373L262.25 865.748L302.625 864.623L332 861.248L365.75 859.373H415.125V852.623L455.25 850.248L464.75 849.623V845.498L535.5 844.748V840.498L595.75 837.748V835.998L669 831.248L778 836.998L802.75 838.248V842.248L840.25 843.748V828.498H835.75V806.498H849.75V802.498H835.75H827.875V796.123H802.75L803.625 792.123L669.625 780.373L595.75 788.248V790.623L535.5 794.748V798.623L504.625 796.998L464.75 800.998V806.873H446.375L414.375 809.998V819.498H365.75L332 822.873L301 829.373L284.375 828.248L262.25 829.373L227 833.873L220.625 833.248L187.5 836.748Z" fill="white"/>
</g>
<g opacity="0.4" style="mix-blend-mode:soft-light">
<path d="M187.5 803V836.625L220.625 833.125L227.625 833.75L262.25 829.125L283.625 828.125L301.625 829.125L332 822.75L365.75 819.375H414.375V809.875L446.25 806.875H455.625H464.75V800.875L504.75 797L535.5 798.748V795L595.75 790.5V788.25L669.75 780.375L778.125 789.75L802.75 791.875V796.248H840.25V782.498H835.75V761.875L849.75 762.375V760.125H840.75V756.498H827.875V750.123H803.625V746.75L817.25 747.375V741.625L702.125 731.625H695.75L669.75 729.25L595.75 739.25V741.75L535.5 748.748V752.623H504.75L464.75 756.625V760.873H455.625V763.998L414.375 767.75V780H365.75L332 784.125L301.625 790.375L283.625 789.5L262.25 792L228.5 797.125V799.75L220.625 799L187.5 803Z" fill="white"/>
</g>
<g opacity="0.4" style="mix-blend-mode:soft-light">
<path d="M187.5 769.625V803L220.5 799L228.438 799.688V797.125L261.25 792.062L283.438 789.5L301.688 790.312L332.125 784.125L365.75 779.969L414.375 780.125V767.781L455.625 763.875V760.875H464.75V756.625L504.25 752.875L535.5 752.25V748.75L595.75 741.75V739.25L669.75 729.25L778.125 737.75L803.625 740.25L817.25 741.75V747H803.625V750.5H827.875V756H840.25V740.25H835.75V730.498V714H840.25V711.375H827.875V699.875L817.25 699.25V689.625L702.375 677.25L695.75 679.625L669.75 681.125L595.75 692.625V697L535.5 704.875V708.375L504.25 707.5L464.75 713.375V715.5L455.625 716V719.625L414.375 726.375V743.875L365.75 741.875L332.125 746.375L301 752.125H283.438L261.875 755.625L228.438 761V764.875H220.5L187.5 769.625Z" fill="white"/>
</g>
<g opacity="0.4" style="mix-blend-mode:soft-light">
<path d="M187.5 735.625V769.5L220.5 765H228.438V760.875L261.875 755.625L283.438 752.312H301.688L332.125 746.125L365.75 741.969L414.375 743.625V726.375L455.625 719.75V716L464.75 715.5V713.5L504.094 707.5L535.5 708.375V704.812L595.75 696.938V692.625L669.75 681.062L695.75 679.75L702.375 677.25L817.25 689.625V699.25L827.875 699.812V704.5V711.312H840.25V696.625H835.75V692.498V676H840.25L842 673.375H827.875V661.875H814.25V654.625L702.375 639.25L695.75 641L669.75 629.25L595.75 644.25V648.75L535.5 658.5V663H505.25L464.75 670.75V675.25H455.625V677L414.375 686.75V705.875L365.75 703.875L332.125 708.375L301.688 717.625L283.438 714.125L261.875 719.75L228.438 726.375V729.75H220.5L187.5 735.625Z" fill="white"/>
</g>
<g opacity="0.4" style="mix-blend-mode:soft-light">
<path d="M187.5 701.5V735.5L220.25 729.875H228.438V726.25L261.75 719.625L283.375 714L301.688 717.75L332.125 708.375L365.75 704L414.375 705.938V686.812L455.625 676.875V675.188H464.75V670.75L505.188 663.062L535.5 662.75V658.5L595.75 648.625V644.125L670.125 629L696 641L702.375 639L814.25 654.5V661.625H827.875V669.25V673.25H841V653.125H835.75V627H840.25L842 624.375H827.875V612.875H814.25V605.625L702.375 590.25L695.75 592L670.125 575.875L595.75 594V596.75L535.5 610.75V617.625H504.25L455.625 628.625V632.625L414.375 643.625V664.25L365.75 661.5L332.875 668.375V674L301.688 682L284 679.875L261.75 683.875L228.438 690.75V693.625H220.25L187.5 701.5Z" fill="white"/>
</g>
<g opacity="0.4" style="mix-blend-mode:soft-light">
<path d="M187.5 666.625V701.5L220.25 693.875H228.438V690.75L262.062 683.75L283.938 679.812L301.812 681.938L332.875 674V668.312L365.812 661.5L414.375 664.25V643.562L455.625 632.625V628.625L504.125 617.625H535.5V610.688L595.75 596.812V593.875L670.062 575.875L695.875 592.062L702.438 590.188L814.25 605.625V613H827.875V624.25H841V611.125H835.75V590.938L845.188 587.438V585.25L841 582.375L827.875 579.75V575.125L814.25 574L803.5 572.75V560.5L702.438 542.75L695.875 544.75L670.062 527.5L595.75 548.25L535.5 562V572L504.125 569.25L455.625 582V590.625L414.375 600.75V628.625L365.812 622.25L332.875 630.875V633.75L302 642.75L283.938 641L262.062 645.25L228.438 653.875V659.25L220.25 658.25L187.5 666.625Z" fill="white"/>
</g>
<g opacity="0.4" style="mix-blend-mode:soft-light">
<path d="M187.5 632.375V666.625L220.25 658.25L228.438 659V653.875L262.062 645.25L283.938 640.812L301.812 642.938L332.875 634V630.75L365.812 622.375L414.375 628.5V600.75L455.625 590.875V582.125L504.125 569.25L535.5 572.125V561.875L595.75 548.125L669.875 527.375L695.875 544.75L702.438 542.75L803.5 560.5V573L827.875 575.25V579.5L841 582.125V571.125H835.75V549L849.125 546.375V542.375L835.75 538.75L827.875 537.5V527.125L814.25 526L803.5 524.75V511.5L702.438 493.75L695.875 495.75L669.25 476.625L595.75 498.375V500.25L535.5 517.625V532L504.125 529.25L455.625 542V547.75L414.375 559.75V587.75L365.812 583.25L332.875 592.75V598.375L301.812 606.5L283.75 604.75L262.062 610.625L228.438 619.25V624.625L220.25 623.625L187.5 632.375Z" fill="white"/>
</g>
<g opacity="0.4" style="mix-blend-mode:soft-light">
<path d="M187.5 598.25V632L220.25 623.625L228.438 624.5V619.375L262.062 610.517L284.375 604.625L301.812 606.375L332.875 598.25V592.75L365.625 583.125L414.375 587.5V559.75L455.625 547.875V541.125L504.125 529.25L535.5 532.125V517.5L595.75 500.75V498.75L669.25 476.75L695.875 495.75L702.438 493.75L803.5 511.5V525.125L827.875 526.875V537.125L835.75 538.75L841 536.375V524L835.75 522.125V506.375L849.125 503.625V501.375L835.75 498.125L827.875 497V481H814.75L803.5 475.75V467.5L702.438 444.75L695.875 446.75L669.25 427.625L595.75 449.375V451.25L535.5 468.625V483L504.125 480.25L455.625 495.375V505.375L414.375 519.25V546.875L365.625 544.25L332.157 554.75V559.976L301.812 569.5L282.5 567.5L260.812 573.375L228.438 582.125V587.5H220.25L187.5 598.25Z" fill="white"/>
</g>
<g opacity="0.4" style="mix-blend-mode:soft-light">
<path d="M187.5 561.25V598.375L220.25 587.5H228.438V582.125L261.875 573.125L282.5 567.625L301.812 569.375L332.157 560V554.875L365.625 544.375L414.375 546.75V519.375L455.625 505.375V495.25L504.125 480.5L535.5 483V468.5L595.75 451.25V449.375L669.25 427.75L695.875 446.875L702.438 444.625L803.5 467.375V475.75L814.75 480.875H827.875V496.875L835.75 498.125L841 499.375V481.75L835.75 480.875V464.5L849.125 461V457L835.75 452.625L827.875 450.25V444H814.75L803.5 438.75V421L702.438 397.875L695.875 399.875L669.25 376.5L595.75 399.875V414.25L535.5 431.625V446L504.125 443.25L455.625 458.375V468.375L414.375 482.25V509.875L365.625 507.25L332.157 517.75V522.976L301.812 532.5L282.5 530.5L260.812 536.375L228.438 545.125V550.5H220.25L187.5 561.25Z" fill="white"/>
</g>
<g opacity="0.4" style="mix-blend-mode:soft-light">
<path d="M187.5 531.25V561.375L220.25 550.5H228.438V545.125L261.875 536.125L282.5 530.625L301.812 532.375L332.157 523V517.875L365.625 507.375L414.375 509.75V482.375L455.625 468.375V458.25L504.125 443.5L535.5 446V431.5L595.75 414.25V399.5L669.25 376.75L695.875 399.5L702.438 398L803.5 421.25V438.625L814.75 443.875H827.875V450.5L841 454.25V438H835.75V421.25L849.125 417.125L835.75 414L827.875 411.5V406.5L814.75 404.75L803.5 390.75V373L702.438 346.75L695.875 348.75L669.25 324.25L595.75 348.75V359.5L566 369.25L535.5 380.25V387.75H504.125L497.25 390.75V394.5L454.375 409V419L414.375 433.5V467.25L392.75 462.5L365.625 468.375L332.157 478.75V485L301.812 494.25V499L282.5 496.5V501.377H261.875L256 503.75V506.25L228.438 515.875L220.25 518.125L187.5 531.25Z" fill="white"/>
</g>
<g opacity="0.4" style="mix-blend-mode:soft-light">
<path d="M841 408.25L846 416L827.5 411V406.5L814.25 404.25L803.5 389V372.5L702.75 347L696.75 348.75L669.25 324.5L595.5 348.75V359.75L535.5 380V387.5H505L496.75 390.25V395L454.5 409V419L415 434V468.25L391.75 463L365.25 468.25L332.25 479.5V485L301.75 494.75L303 498.75L282.5 496V501.5H261.25L256.5 503.75V506.5L215.75 520L187.25 531.375V545.5L184.25 544V496H187.25L209 490.25V482.5H233.5L244.75 479.5V472.5L256.5 468.25V464.25L262.5 461.5H274.25V456.25L278.75 454.5L303 457.75V438.5L327.5 440.5L367 424.75H372L391.75 417L415 420.5V380.375L417.5 379.625H423.5V371.5L447.75 374L483 363.5V356L480.25 354.5V351.75L505 344.25L528 335.25L534.25 333.5H539.75L557.75 327.5V316L669.25 274.75L696.75 300.5H702.75L780.75 321.25L803.5 327.75V361L815.75 364.5L835.75 365.75L849.25 370V375L835.75 379V395H841V408.25Z" fill="white"/>
</g>
<g opacity="0.4" style="mix-blend-mode:soft-light">
<path d="M184.25 473.25V495.5H187.5L209.25 489.75V483H233.25L244.5 479.25V473.25L256.5 468V464L262.25 461.5H274V456L277.5 454.5L304 457.25V438.25L327.75 440.75L366.25 424.25H372.75L392.5 417L414.75 420.25V380L418.25 379L423.75 380V371.25L446.75 373.75L482.5 363.75V356.25L480 354.25V352.25L504.5 344L533.25 333.5H541.5L558.25 328V315.75L669.75 275L696.75 300.25H702.5L803.5 327.75V360.5L816 364.5L842 367.25L840.25 351.5H836V336.5L849 330.5L840.25 324.5V309L836 307.75V300.25L804.75 290L812.75 283.75V278L794.75 272.5V258.25L669.25 222.25L558.25 268V273.75L541.5 279.75L531.75 278.25L414.75 325.25V373.75L392.5 372.5L375.25 379H366.25L301.25 402.75V418.5L277.5 415.5L204.25 444.75V459.25L193.75 463L187.5 471L184.25 473.25Z" fill="white"/>
</g>
<circle opacity="0.5" cx="479.518" cy="877.477" r="31.2266" fill="white"/>
<circle cx="479.518" cy="877.477" r="30.2266" stroke="white" stroke-width="2"/>
<path d="M479.701 869.649V893.637M479.382 878.093L476.631 875.342M480.213 881.547L483.699 878.061M479.701 862.805C476.271 862.805 473.465 865.611 473.465 869.042V869.305C470.827 868.499 468.119 870.464 468.119 873.261C468.119 875.035 469.236 876.547 470.804 877.135C469.417 878.203 468.523 879.88 468.523 881.767C468.523 884.993 471.138 887.609 474.364 887.609C476.217 887.609 477.867 886.746 478.937 885.402C479.446 885.465 479.957 885.465 480.465 885.402C481.536 886.746 483.186 887.609 485.038 887.609C488.265 887.609 490.88 884.993 490.88 881.767C490.88 879.88 489.986 878.203 488.598 877.135C490.167 876.547 491.284 875.035 491.284 873.261C491.284 870.464 488.576 868.499 485.938 869.305V869.042C485.938 865.611 483.132 862.805 479.701 862.805Z" stroke="white" stroke-width="2" stroke-miterlimit="22.926" stroke-linecap="round" stroke-linejoin="round"/>
<line x1="480.518" y1="908.285" x2="480.518" y2="965.785" stroke="white" stroke-width="2"/>
<circle opacity="0.5" cx="152.686" cy="865.096" r="31.2266" fill="white"/>
<circle cx="152.686" cy="865.096" r="30.2266" stroke="white" stroke-width="2"/>
<path d="M158.757 852.895C160.237 852.105 162.026 852.165 163.464 853.029L164.216 853.48L167.088 855.205C168.393 855.823 168.998 857.344 168.474 858.689C168.053 859.77 167.018 860.441 165.911 860.441C165.642 860.441 165.368 860.402 165.098 860.318L161.972 859.349H161.971C159.391 860.283 160.82 865.891 160.867 866.093C160.867 866.095 160.868 866.096 160.868 866.097L162.906 873.952L163.992 878.142L159.358 878.923C158.84 873.854 154.557 869.899 149.351 869.899C144.145 869.899 139.862 873.854 139.344 878.923L134.709 878.142L135.796 873.952L137.834 864.688C138.453 862.303 140.813 860.797 143.234 861.256C145.255 861.638 147.303 861.829 149.351 861.829C149.488 861.829 149.625 861.828 149.763 861.826C149.806 861.825 149.849 861.825 149.892 861.824C151.327 861.801 152.762 861.683 154.186 861.471M140.724 874.782L135.796 873.952M162.905 873.952L157.978 874.782M154.186 861.471C154.186 856.839 156.631 854.028 158.757 852.895C160.237 852.105 162.026 852.165 163.464 853.029L164.216 853.48L166.659 850.018L165.64 849.406C162.936 847.782 159.536 847.689 156.769 849.165C154.751 850.241 153.14 851.845 151.979 853.935C151.162 855.408 150.591 857.1 150.269 858.997C150.269 858.997 150.045 860.465 149.892 861.824M134.709 860.486V859.185C134.709 858.017 135.656 857.071 136.823 857.071C137.406 857.071 137.934 857.308 138.317 857.691C138.699 858.073 138.936 858.601 138.936 859.185V862.674M149.351 877.833V869.899M155.132 882.072H143.57V880.672C143.57 879.104 144.841 877.833 146.409 877.833H152.293C153.861 877.833 155.132 879.104 155.132 880.672V882.072Z" stroke="white" stroke-width="2" stroke-miterlimit="10" stroke-linecap="round" stroke-linejoin="round"/>
<line x1="153.686" y1="895.904" x2="153.686" y2="953.404" stroke="white" stroke-width="2"/>
<circle opacity="0.5" cx="875.064" cy="848.727" r="31.2266" fill="white"/>
<circle cx="875.064" cy="848.727" r="30.2266" stroke="white" stroke-width="2"/>
<path d="M872.386 847.565L875.26 841.796M879.814 853.928L887.052 849.99C887.578 849.69 888.051 849.278 888.435 848.761C889.928 846.751 889.509 843.913 887.5 842.42C886.413 841.613 885.084 841.365 883.856 841.625C883.751 840.374 883.129 839.173 882.043 838.366C880.956 837.559 879.627 837.311 878.399 837.571C878.294 836.32 877.672 835.119 876.586 834.312C874.576 832.819 871.737 833.238 870.245 835.247C869.861 835.765 869.603 836.336 869.467 836.926L867.787 844.994M880.717 845.85L876.024 850.268M866.097 859.831C863.083 857.592 862.455 853.333 864.694 850.32C865.44 849.315 866.86 849.106 867.864 849.852L875.14 855.257C876.145 856.003 876.354 857.423 875.608 858.428C873.369 861.441 869.111 862.07 866.097 859.831Z" stroke="white" stroke-width="2" stroke-miterlimit="10" stroke-linecap="round" stroke-linejoin="round"/>
<line x1="876.064" y1="879.535" x2="876.064" y2="937.035" stroke="white" stroke-width="2"/>
<g opacity="0.4" style="mix-blend-mode:soft-light">
<path d="M817.5 212L667.25 162.25H661.5L541.25 213.25V218.75L403.75 278V287.25L422.25 292.25V297.25L406.75 303.625V313.875L413.911 316.785V330.438L404.111 329.706L381.25 328L194 408.08V415.75L211.75 419V431.625L181.25 444V449.042H186.75V470.946H187.653L194 463.25L204.5 458.75V444.711L277.5 415.75L301.75 418.25V403L366.75 378.75H375.75L392.25 372.25L414.75 373.5V325.5L532.5 278L541.25 279.75L558 273.75V268L669.75 222.25L795.5 258.25V272.5L812.5 278.25V283L805.5 290.25L830.5 298.75V295.75L852.5 287.5V276L810.75 262.5L813.75 258.25V250.75L810.75 245.75L788.5 237.75L817.5 226V212Z" fill="white"/>
</g>
<g opacity="0.4" style="mix-blend-mode:soft-light">
<path d="M484.25 242.75L407.5 275.5V260L400.25 257.5V250.25L443 230.5L484.25 242.75Z" fill="white"/>
<path fill-rule="evenodd" clip-rule="evenodd" d="M382 327.25L413.5 330.407V316.75L406.75 313.5V304.25L421.625 297.625V292.75H417L414.75 295.25L357.5 320.5V327.25L366.25 329.5V332.5L328.75 326L215 376.25V398.75L382 327.25Z" fill="white"/>
<path fill-rule="evenodd" clip-rule="evenodd" d="M181.5 431.5V442.5L211.75 431.222V419L181.5 431.5Z" fill="white"/>
</g>
<g opacity="0.4" style="mix-blend-mode:soft-light">
<path d="M186.977 910.097V964.097H629.5V953H746.5V980.598H792.478V891.098H816.478V882.098L661 876.75L370.478 890.098V894.098L168.978 903.5L168.977 910.097H186.977Z" fill="white"/>
</g>
</svg>
