<svg width="23" height="21" viewBox="0 0 23 21" fill="none" xmlns="http://www.w3.org/2000/svg">
<path d="M17.6904 12.634L20.5925 9.88953C22.6302 7.85184 22.6302 4.54811 20.5925 2.51042C18.5548 0.472724 15.2511 0.472724 13.2134 2.51042L9.1035 6.50347C8.41164 7.17293 8.40255 8.27939 9.08332 8.96012V8.96016C9.75619 9.63304 10.8472 9.63304 11.5201 8.96016L12.2558 8.22443C12.5388 7.9414 12.9978 7.9414 13.2808 8.22443L17.8485 12.7921C18.4016 13.3452 18.4016 14.2419 17.8485 14.795C17.2954 15.3481 16.3987 15.3481 15.8456 14.795" stroke="black" stroke-width="1.5" stroke-miterlimit="10" stroke-linecap="round" stroke-linejoin="round"/>
<path d="M12.3814 15.6321L13.621 16.8718C14.2149 17.4657 15.1778 17.4657 15.7717 16.8718C16.3656 16.278 16.3656 15.3151 15.7717 14.7211L14.5255 13.4749" stroke="black" stroke-width="1.5" stroke-miterlimit="10" stroke-linecap="round" stroke-linejoin="round"/>
<path d="M11.7115 3.94944L10.1196 2.35753C7.97618 0.214123 4.50101 0.214123 2.35756 2.35753C0.214148 4.50098 0.214148 7.97617 2.35756 10.1196L2.94281 10.7048" stroke="black" stroke-width="1.5" stroke-miterlimit="10" stroke-linecap="round" stroke-linejoin="round"/>
<path d="M6.69907 17.9744L6.71873 17.994C7.32324 18.5985 8.3034 18.5985 8.90791 17.994L9.70003 17.2019C10.3046 16.5973 10.3046 15.6172 9.70003 15.0127L9.68042 14.9931C9.07587 14.3885 8.09575 14.3885 7.49119 14.9931L6.69907 15.7851C6.09456 16.3897 6.09456 17.3698 6.69907 17.9744Z" stroke="black" stroke-width="1.5" stroke-miterlimit="10" stroke-linecap="round" stroke-linejoin="round"/>
<path d="M4.45636 15.7993L4.47597 15.8189C5.08052 16.4235 6.06064 16.4235 6.66516 15.8189L8.66248 13.8217C9.26699 13.2171 9.26699 12.237 8.66248 11.6324L8.64283 11.6128C8.03832 11.0083 7.05815 11.0083 6.45364 11.6128L4.45636 13.6101C3.85185 14.2146 3.85185 15.1948 4.45636 15.7993Z" stroke="black" stroke-width="1.5" stroke-miterlimit="10" stroke-linecap="round" stroke-linejoin="round"/>
<path d="M2.24755 13.5903L2.26716 13.6099C2.87171 14.2145 3.85188 14.2145 4.45639 13.6099L5.67828 12.388C6.28284 11.7835 6.28284 10.8034 5.67828 10.1989L5.65867 10.1792C5.05411 9.57469 4.074 9.57469 3.46944 10.1792L2.24755 11.4011C1.64304 12.0057 1.64304 12.9858 2.24755 13.5903Z" stroke="black" stroke-width="1.5" stroke-miterlimit="10" stroke-linecap="round" stroke-linejoin="round"/>
<path d="M9.67686 17.2295L11.47 19.0227C12.0639 19.6166 13.0268 19.6166 13.6207 19.0227C14.2146 18.4288 14.2146 17.4659 13.6207 16.872" stroke="black" stroke-width="1.5" stroke-miterlimit="10" stroke-linecap="round" stroke-linejoin="round"/>
</svg>
