<svg width="327" height="103" viewBox="0 0 327 103" fill="none" xmlns="http://www.w3.org/2000/svg">
<path d="M18.3184 77.4394L0 21.4453H15.2794L27.2795 61.9197H27.6788L39.679 21.4453H54.7181L36.3997 77.4394H18.3216H18.3184Z" fill="white"/>
<path d="M75.6699 64.6405V55.2021H98.787V43.2832H75.6699V34.2441H100.388V21.4453H61.1113V77.4394H101.186V64.6405H75.6699Z" fill="white"/>
<path d="M157.819 77.44L144.735 57.3327C145.293 57.0892 145.842 56.8197 146.381 56.521C149.206 54.9496 151.446 52.7612 153.102 49.9625C154.755 47.1638 155.582 44.0046 155.582 40.4851C155.582 36.9656 154.768 33.5273 153.144 30.6474C151.517 27.7675 149.238 25.5142 146.306 23.8876C143.375 22.2609 139.959 21.4492 136.069 21.4492H110.952V77.4433H125.511V58.8847H130.069L141.667 77.4433H157.826L157.819 77.44ZM125.504 34.2448H134.943C136.81 34.2448 138.329 34.8195 139.501 35.9656C140.673 37.1117 141.261 38.6182 141.261 40.4851C141.261 41.7124 140.995 42.8033 140.462 43.7644C139.93 44.7254 139.183 45.4592 138.222 45.9624C137.261 46.4689 136.17 46.7222 134.943 46.7222H125.504V34.2448Z" fill="white"/>
<path d="M175.258 77.4394V34.4844H159.18V21.4453H205.732V34.4844H189.735V77.4394H175.258Z" fill="white"/>
<path d="M227.97 64.6405V55.2021H251.087V43.2832H227.97V34.2441H252.688V21.4453H213.411V77.4394H253.486V64.6405H227.97Z" fill="white"/>
<path d="M256.847 77.4391L275.084 48.6433L257.645 21.4483H274.042L284.6 39.6855L311.003 0H327L293.802 48.6433L311.88 77.4391H295.561L284.363 57.8415L273.165 77.4391H256.847Z" fill="white"/>
<path d="M110.916 98.6641V84.8848H114.676L118.238 95.0829H118.355L121.916 84.8848H125.618V98.6641H123.118V88.2322H123.02L119.338 98.6641H117.212L113.53 88.2322H113.433V98.6641H110.913H110.916Z" fill="white"/>
<path d="M136.94 89.8652C136.599 89.2873 136.109 88.849 135.472 88.547C134.836 88.2451 134.076 88.0957 133.2 88.0957C132.044 88.0957 131.102 88.3847 130.375 88.9626C129.648 89.5405 129.17 90.2938 128.946 91.2256H131.29C131.407 90.8977 131.631 90.6314 131.959 90.4269C132.287 90.2224 132.68 90.1217 133.141 90.1217C133.758 90.1217 134.245 90.2775 134.609 90.5827C134.969 90.8912 135.151 91.3198 135.151 91.8717V92.4237H132.553C131.713 92.4237 130.995 92.56 130.398 92.836C129.8 93.112 129.349 93.4951 129.04 93.9886C128.732 94.4821 128.576 95.0341 128.576 95.651C128.576 96.2679 128.726 96.8198 129.018 97.3036C129.313 97.7906 129.732 98.1705 130.277 98.4465C130.823 98.7224 131.463 98.8588 132.196 98.8588C132.93 98.8588 133.515 98.7094 134.028 98.4172C134.541 98.1218 134.914 97.7906 135.148 97.4237H135.245L135.502 98.664H137.45V91.9334C137.45 91.1314 137.278 90.4431 136.937 89.8652H136.94ZM134.836 95.8003C134.625 96.1477 134.329 96.4205 133.95 96.6185C133.57 96.8166 133.135 96.914 132.651 96.914C132.073 96.914 131.638 96.7874 131.342 96.5309C131.047 96.2744 130.901 95.9367 130.901 95.5179C130.901 95.125 131.044 94.8068 131.333 94.5633C131.622 94.3198 132.047 94.1997 132.612 94.1997H135.151V94.6315C135.151 95.0633 135.047 95.4562 134.836 95.8036V95.8003Z" fill="white"/>
<path d="M140.66 98.664V88.2905H142.628L142.885 89.5503H142.982C143.323 89.0665 143.738 88.6996 144.232 88.4594C144.725 88.2158 145.245 88.0957 145.797 88.0957C146.544 88.0957 147.212 88.2678 147.794 88.6087C148.378 88.9496 148.829 89.4399 149.151 90.0762C149.472 90.7126 149.635 91.4561 149.635 92.31V98.6672H147.333V92.5665C147.333 92.0665 147.248 91.6412 147.076 91.2873C146.904 90.9334 146.664 90.6607 146.349 90.4691C146.034 90.2776 145.661 90.1834 145.225 90.1834C144.79 90.1834 144.404 90.2873 144.063 90.4983C143.722 90.7094 143.456 90.9951 143.264 91.3555C143.073 91.7159 142.979 92.1185 142.979 92.5665V98.6672H140.657L140.66 98.664Z" fill="white"/>
<path d="M160.622 89.8652C160.281 89.2873 159.79 88.849 159.154 88.547C158.518 88.2451 157.758 88.0957 156.881 88.0957C155.725 88.0957 154.784 88.3847 154.057 88.9626C153.329 89.5405 152.852 90.2938 152.628 91.2256H154.972C155.089 90.8977 155.313 90.6314 155.641 90.4269C155.969 90.2224 156.362 90.1217 156.823 90.1217C157.44 90.1217 157.927 90.2775 158.29 90.5827C158.651 90.8912 158.833 91.3198 158.833 91.8717V92.4237H156.235C155.394 92.4237 154.677 92.56 154.079 92.836C153.482 93.112 153.031 93.4951 152.722 93.9886C152.414 94.4821 152.258 95.0341 152.258 95.651C152.258 96.2679 152.407 96.8198 152.699 97.3036C152.995 97.7906 153.414 98.1705 153.959 98.4465C154.505 98.7224 155.144 98.8588 155.878 98.8588C156.612 98.8588 157.196 98.7094 157.709 98.4172C158.222 98.1218 158.596 97.7906 158.829 97.4237H158.927L159.183 98.664H161.131V91.9334C161.131 91.1314 160.959 90.4431 160.618 89.8652H160.622ZM158.514 95.8003C158.303 96.1477 158.008 96.4205 157.628 96.6185C157.248 96.8166 156.813 96.914 156.329 96.914C155.751 96.914 155.316 96.7874 155.021 96.5309C154.725 96.2744 154.579 95.9367 154.579 95.5179C154.579 95.125 154.722 94.8068 155.011 94.5633C155.3 94.3198 155.725 94.1997 156.29 94.1997H158.829V94.6315C158.829 95.0633 158.725 95.4562 158.514 95.8036V95.8003Z" fill="white"/>
<path d="M168.849 102.601C167.943 102.601 167.167 102.465 166.514 102.189C165.865 101.913 165.339 101.526 164.94 101.026C164.54 100.526 164.241 99.9289 164.043 99.2341H166.466C166.608 99.64 166.888 99.9549 167.303 100.179C167.716 100.403 168.232 100.513 168.849 100.513C169.608 100.513 170.209 100.325 170.651 99.9516C171.089 99.5783 171.31 99.0361 171.31 98.3283V96.7536H171.212C170.923 97.1204 170.531 97.4321 170.031 97.6886C169.531 97.9451 168.949 98.0718 168.277 98.0718C167.41 98.0718 166.644 97.8769 165.975 97.4906C165.306 97.1042 164.784 96.536 164.41 95.7893C164.037 95.0425 163.849 94.1431 163.849 93.0912C163.849 92.0392 164.037 91.1399 164.41 90.3834C164.784 89.6301 165.306 89.0587 165.975 88.6691C166.644 88.2827 167.414 88.0879 168.277 88.0879C168.92 88.0879 169.501 88.2178 170.021 88.4807C170.54 88.7437 170.969 89.0847 171.31 89.5035H171.407L171.664 88.2827H173.631V98.3218C173.631 99.6984 173.222 100.757 172.401 101.491C171.579 102.224 170.397 102.595 168.849 102.595V102.601ZM168.751 95.9873C169.264 95.9873 169.712 95.8737 170.099 95.6432C170.485 95.4126 170.784 95.0782 170.995 94.6399C171.206 94.2016 171.31 93.6854 171.31 93.0944C171.31 92.5035 171.206 91.971 170.995 91.5392C170.784 91.1074 170.485 90.773 170.099 90.536C169.712 90.299 169.261 90.1821 168.751 90.1821C168.242 90.1821 167.771 90.299 167.384 90.536C166.998 90.773 166.699 91.1074 166.488 91.5392C166.277 91.971 166.173 92.4905 166.173 93.0944C166.173 93.6983 166.277 94.2016 166.488 94.6399C166.699 95.0782 166.998 95.4159 167.384 95.6432C167.771 95.8737 168.229 95.9873 168.751 95.9873Z" fill="white"/>
<path d="M185.68 90.6347C185.288 89.862 184.723 89.2451 183.989 88.784C183.255 88.3262 182.388 88.0957 181.391 88.0957C180.395 88.0957 179.521 88.31 178.775 88.7353C178.028 89.1606 177.45 89.7743 177.044 90.5763C176.638 91.3782 176.434 92.349 176.434 93.4886C176.434 94.6282 176.641 95.586 177.054 96.3912C177.466 97.1997 178.047 97.8133 178.797 98.2322C179.544 98.651 180.424 98.862 181.434 98.862C182.262 98.862 182.989 98.7224 183.619 98.44C184.249 98.1575 184.762 97.7776 185.154 97.2971C185.547 96.8198 185.843 96.2581 186.041 95.6153H183.56C183.31 96.0341 183.025 96.3425 182.703 96.5406C182.382 96.7386 181.956 96.8361 181.434 96.8361C180.83 96.8361 180.326 96.6997 179.927 96.4237C179.528 96.1477 179.232 95.7451 179.041 95.2127C178.937 94.9205 178.862 94.5958 178.817 94.2386H186.177C186.203 94.1088 186.226 93.9497 186.245 93.7646C186.265 93.5795 186.275 93.3912 186.275 93.1932C186.275 92.2613 186.077 91.4074 185.684 90.6347H185.68ZM178.82 92.4626C178.872 92.1639 178.947 91.888 179.057 91.6347C179.262 91.1607 179.56 90.7905 179.953 90.5211C180.346 90.2516 180.827 90.1185 181.391 90.1185C181.904 90.1185 182.346 90.2288 182.719 90.4529C183.093 90.6769 183.382 90.9659 183.586 91.3198C183.791 91.6737 183.924 92.0535 183.989 92.4626H178.82Z" fill="white"/>
<path d="M193.08 98.8622C192.187 98.8622 191.404 98.6544 190.729 98.242C190.054 97.8297 189.525 97.2193 189.145 96.4109C188.765 95.6024 188.573 94.6284 188.573 93.4887C188.573 92.3491 188.765 91.3686 189.145 90.5569C189.525 89.742 190.054 89.1283 190.729 88.716C191.404 88.3036 192.19 88.0958 193.08 88.0958C193.775 88.0958 194.372 88.2257 194.872 88.4887C195.372 88.7517 195.771 89.0731 196.073 89.453H196.171V84.8848H198.473V98.6641H196.525L196.268 97.4238H196.171C195.817 97.8557 195.385 98.2031 194.872 98.4661C194.359 98.7291 193.762 98.8589 193.08 98.8589V98.8622ZM193.534 96.7745C194.047 96.7745 194.499 96.6544 194.891 96.4109C195.284 96.1673 195.596 95.8005 195.827 95.3069C196.057 94.8134 196.171 94.2095 196.171 93.4855C196.171 92.7615 196.057 92.1543 195.827 91.6543C195.596 91.1543 195.284 90.7842 194.891 90.5407C194.499 90.2972 194.044 90.177 193.534 90.177C193.025 90.177 192.57 90.2972 192.177 90.5407C191.784 90.7842 191.473 91.1543 191.242 91.6543C191.012 92.1543 190.898 92.7647 190.898 93.4855C190.898 94.5602 191.145 95.3784 191.635 95.9368C192.128 96.4953 192.762 96.7745 193.534 96.7745Z" fill="white"/>
<path d="M209.064 98.6641L205.482 84.8848H208.099L210.521 95.3167H210.619L213.197 84.8848H215.953L218.512 95.3167H218.609L221.051 84.8848H223.609L220.047 98.6641H217.096L214.596 88.4887H214.499L212.018 98.6641H209.067H209.064Z" fill="white"/>
<path d="M229.756 98.862C228.746 98.862 227.866 98.651 227.12 98.2322C226.373 97.8133 225.792 97.1997 225.376 96.3912C224.964 95.5828 224.756 94.6153 224.756 93.4886C224.756 92.362 224.964 91.375 225.376 90.5763C225.788 89.7743 226.37 89.1606 227.12 88.7353C227.866 88.31 228.746 88.0957 229.756 88.0957C230.766 88.0957 231.626 88.31 232.373 88.7353C233.12 89.1606 233.701 89.7743 234.116 90.5763C234.529 91.3782 234.736 92.349 234.736 93.4886C234.736 94.6282 234.529 95.586 234.116 96.3912C233.704 97.1997 233.123 97.8133 232.373 98.2322C231.626 98.651 230.753 98.862 229.756 98.862ZM229.756 96.7744C230.253 96.7744 230.707 96.6542 231.113 96.4107C231.519 96.1672 231.837 95.7971 232.068 95.2971C232.298 94.7971 232.412 94.1932 232.412 93.4854C232.412 92.7776 232.298 92.1542 232.068 91.6542C231.837 91.1542 231.519 90.784 231.113 90.5405C230.707 90.297 230.253 90.1769 229.756 90.1769C229.259 90.1769 228.785 90.297 228.379 90.5405C227.973 90.784 227.655 91.1542 227.425 91.6542C227.194 92.1542 227.081 92.7646 227.081 93.4854C227.081 94.2062 227.194 94.7971 227.425 95.2971C227.655 95.7971 227.973 96.1672 228.379 96.4107C228.785 96.6542 229.246 96.7744 229.756 96.7744Z" fill="white"/>
<path d="M237.528 98.6625V88.2891H239.496L239.752 89.5488H239.85C240.126 89.104 240.48 88.7826 240.911 88.5845C241.343 88.3865 241.843 88.2891 242.408 88.2891H243.629V90.5131H242.548C241.996 90.5131 241.522 90.6203 241.119 90.8378C240.72 91.0553 240.408 91.354 240.184 91.7339C239.96 92.1138 239.85 92.5618 239.85 93.0716V98.6625H237.528Z" fill="white"/>
<path d="M246.074 98.6641V84.8848H248.396V92.9952L252.607 88.2906H255.344L250.818 93.3491L255.639 98.6641H252.844L248.396 93.781V98.6641H246.074Z" fill="white"/>
<path d="M260.697 98.8607C259.895 98.8607 259.188 98.7341 258.571 98.4776C257.954 98.2211 257.454 97.851 257.074 97.364C256.694 96.8802 256.437 96.2958 256.308 95.6107H258.788C258.866 95.9776 259.08 96.273 259.428 96.4971C259.775 96.7211 260.197 96.8315 260.697 96.8315C261.392 96.8315 261.902 96.7308 262.223 96.5263C262.545 96.3217 262.707 96.0523 262.707 95.7081C262.707 95.4581 262.616 95.26 262.431 95.1074C262.246 94.9581 262.012 94.8347 261.723 94.7438C261.434 94.6529 261.041 94.5522 260.541 94.4483C259.739 94.2795 259.084 94.0944 258.574 93.8964C258.064 93.6983 257.616 93.3834 257.236 92.9516C256.856 92.5198 256.665 91.9158 256.665 91.1399C256.665 90.5749 256.824 90.0652 257.149 89.6041C257.47 89.1463 257.934 88.7762 258.545 88.5002C259.155 88.2243 259.873 88.0879 260.701 88.0879C261.473 88.0879 262.158 88.2048 262.749 88.4418C263.34 88.6788 263.824 89.0197 264.207 89.4645C264.587 89.9093 264.837 90.4548 264.954 91.0977H262.473C262.395 90.8087 262.21 90.5717 261.921 90.3899C261.632 90.2048 261.227 90.1139 260.701 90.1139C260.175 90.1139 259.752 90.2048 259.47 90.3899C259.188 90.5749 259.048 90.8217 259.048 91.1366C259.048 91.3996 259.142 91.6107 259.334 91.7665C259.522 91.9256 259.762 92.0522 260.051 92.1496C260.34 92.247 260.739 92.3509 261.252 92.4548C262.054 92.6269 262.707 92.8055 263.21 92.997C263.714 93.1886 264.155 93.5003 264.528 93.9321C264.902 94.3639 265.09 94.9548 265.09 95.7048C265.09 96.3477 264.915 96.9062 264.567 97.3769C264.22 97.851 263.717 98.2146 263.061 98.4679C262.405 98.7211 261.616 98.851 260.697 98.851V98.8607Z" fill="white"/>
<path d="M267.685 102.602V88.2905H269.652L269.909 89.5503H270.006C270.36 89.1184 270.792 88.7678 271.295 88.4983C271.801 88.2288 272.399 88.0957 273.097 88.0957C273.977 88.0957 274.753 88.3035 275.428 88.7158C276.103 89.1282 276.633 89.7418 277.013 90.5568C277.392 91.3717 277.584 92.349 277.584 93.4886C277.584 94.6282 277.392 95.6055 277.013 96.4107C276.633 97.2192 276.103 97.8263 275.428 98.2419C274.753 98.6542 273.974 98.862 273.097 98.862C272.402 98.862 271.801 98.7354 271.295 98.4789C270.788 98.2224 270.392 97.9042 270.103 97.5244H270.006V102.602H267.685ZM272.646 96.7744C273.159 96.7744 273.61 96.6542 274.003 96.4107C274.396 96.1672 274.707 95.8003 274.938 95.3068C275.168 94.8133 275.282 94.2094 275.282 93.4854C275.282 92.3977 275.035 91.573 274.545 91.0146C274.052 90.4561 273.418 90.1769 272.646 90.1769C272.133 90.1769 271.681 90.297 271.288 90.5405C270.896 90.784 270.584 91.1542 270.353 91.6542C270.123 92.1542 270.009 92.7646 270.009 93.4854C270.009 94.2062 270.123 94.8133 270.353 95.3068C270.584 95.8003 270.896 96.1672 271.288 96.4107C271.681 96.6542 272.136 96.7744 272.646 96.7744Z" fill="white"/>
<path d="M287.882 89.8652C287.541 89.2873 287.051 88.849 286.415 88.547C285.778 88.2451 285.019 88.0957 284.142 88.0957C282.986 88.0957 282.045 88.3847 281.317 88.9626C280.59 89.5405 280.113 90.2938 279.889 91.2256H282.233C282.35 90.8977 282.574 90.6314 282.902 90.4269C283.23 90.2224 283.622 90.1217 284.084 90.1217C284.7 90.1217 285.187 90.2775 285.551 90.5827C285.911 90.8912 286.093 91.3198 286.093 91.8717V92.4237H283.496C282.655 92.4237 281.937 92.56 281.34 92.836C280.743 93.112 280.291 93.4951 279.983 93.9886C279.674 94.4821 279.519 95.0341 279.519 95.651C279.519 96.2679 279.668 96.8198 279.96 97.3036C280.256 97.7906 280.674 98.1705 281.22 98.4465C281.765 98.7224 282.405 98.8588 283.139 98.8588C283.873 98.8588 284.457 98.7094 284.97 98.4172C285.483 98.1218 285.856 97.7906 286.09 97.4237H286.187L286.444 98.664H288.392V91.9334C288.392 91.1314 288.22 90.4431 287.879 89.8652H287.882ZM285.775 95.8003C285.564 96.1477 285.269 96.4205 284.889 96.6185C284.509 96.8166 284.074 96.914 283.59 96.914C283.012 96.914 282.577 96.7874 282.282 96.5309C281.986 96.2744 281.84 95.9367 281.84 95.5179C281.84 95.125 281.983 94.8068 282.272 94.5633C282.561 94.3198 282.986 94.1997 283.551 94.1997H286.09V94.6315C286.09 95.0633 285.986 95.4562 285.775 95.8036V95.8003Z" fill="white"/>
<path d="M296.11 98.862C295.101 98.862 294.221 98.651 293.474 98.2322C292.727 97.8133 292.146 97.1997 291.73 96.3912C291.318 95.5828 291.11 94.6153 291.11 93.4886C291.11 92.362 291.318 91.375 291.73 90.5763C292.143 89.7743 292.724 89.1606 293.474 88.7353C294.221 88.31 295.101 88.0957 296.11 88.0957C296.938 88.0957 297.666 88.2418 298.295 88.5373C298.925 88.8327 299.442 89.2353 299.841 89.7483C300.24 90.2613 300.533 90.8587 300.718 91.5405H298.377C298.14 91.0957 297.838 90.7581 297.471 90.5276C297.104 90.297 296.649 90.1834 296.114 90.1834C295.578 90.1834 295.107 90.31 294.705 90.5665C294.305 90.823 293.993 91.1964 293.769 91.6899C293.545 92.1834 293.435 92.7808 293.435 93.4919C293.435 94.2029 293.545 94.8003 293.769 95.2938C293.993 95.7873 294.305 96.1575 294.705 96.4075C295.104 96.6575 295.575 96.7809 296.114 96.7809C296.653 96.7809 297.104 96.6672 297.471 96.4367C297.838 96.2062 298.14 95.875 298.377 95.4432H300.718C300.533 96.112 300.24 96.7029 299.841 97.2159C299.442 97.7289 298.925 98.1315 298.295 98.427C297.666 98.7224 296.938 98.8685 296.11 98.8685V98.862Z" fill="white"/>
<path d="M311.857 90.6347C311.464 89.862 310.899 89.2451 310.166 88.784C309.432 88.3262 308.565 88.0957 307.568 88.0957C306.571 88.0957 305.698 88.31 304.951 88.7353C304.205 89.1606 303.627 89.7743 303.221 90.5763C302.815 91.3782 302.61 92.349 302.61 93.4886C302.61 94.6282 302.818 95.586 303.23 96.3912C303.643 97.1997 304.224 97.8133 304.974 98.2322C305.721 98.651 306.601 98.862 307.61 98.862C308.438 98.862 309.166 98.7224 309.795 98.44C310.425 98.1575 310.938 97.7776 311.331 97.2971C311.724 96.8198 312.02 96.2581 312.218 95.6153H309.737C309.487 96.0341 309.201 96.3425 308.88 96.5406C308.558 96.7386 308.133 96.8361 307.61 96.8361C307.006 96.8361 306.503 96.6997 306.104 96.4237C305.705 96.1477 305.409 95.7451 305.218 95.2127C305.114 94.9205 305.039 94.5958 304.993 94.2386H312.354C312.38 94.1088 312.403 93.9497 312.422 93.7646C312.442 93.5795 312.451 93.3912 312.451 93.1932C312.451 92.2613 312.253 91.4074 311.86 90.6347H311.857ZM304.997 92.4626C305.049 92.1639 305.123 91.888 305.234 91.6347C305.438 91.1607 305.737 90.7905 306.13 90.5211C306.523 90.2516 307.003 90.1185 307.568 90.1185C308.081 90.1185 308.523 90.2288 308.896 90.4529C309.27 90.6769 309.558 90.9659 309.763 91.3198C309.968 91.6737 310.101 92.0535 310.166 92.4626H304.997Z" fill="white"/>
</svg>
