<svg width="227" height="54" viewBox="0 0 227 54" fill="none" xmlns="http://www.w3.org/2000/svg">
<path d="M12.6889 53.641L0 14.8547H10.5838L18.8961 42.8908H19.1728L27.4851 14.8547H37.9025L25.2136 53.641H12.6911H12.6889Z" fill="#0097DC"/>
<path d="M52.4153 44.7755V38.2376H68.4282V29.9815H52.4153V23.7203H69.537V14.8547H42.3308V53.641H70.0903V44.7755H52.4153Z" fill="#0097DC"/>
<path d="M109.32 53.641L100.256 39.7129C100.643 39.5442 101.023 39.3576 101.396 39.1507C103.353 38.0621 104.905 36.5463 106.052 34.6077C107.197 32.669 107.77 30.4808 107.77 28.0428C107.77 25.6049 107.206 23.2232 106.081 21.2283C104.954 19.2335 103.376 17.6727 101.345 16.5459C99.3138 15.4192 96.9479 14.8569 94.2535 14.8569H76.8552V53.6433H86.9398V40.7879H90.0974L98.1308 53.6433H109.324L109.32 53.641ZM86.9353 23.7202H93.4731C94.7663 23.7202 95.8189 24.1183 96.6308 24.9122C97.4426 25.7061 97.8497 26.7497 97.8497 28.0428C97.8497 28.893 97.6653 29.6486 97.2965 30.3143C96.9276 30.98 96.4103 31.4883 95.7446 31.8369C95.0789 32.1877 94.3233 32.3632 93.4731 32.3632H86.9353V23.7202Z" fill="#0097DC"/>
<path d="M121.399 53.641V23.8867H110.262V14.8547H142.508V23.8867H131.427V53.641H121.399Z" fill="#0097DC"/>
<path d="M157.912 44.7755V38.2376H173.925V29.9815H157.912V23.7203H175.033V14.8547H147.827V53.641H175.587V44.7755H157.912Z" fill="#0097DC"/>
<path d="M177.914 53.641L190.547 33.6946L178.468 14.8569H189.825L197.139 27.4896L215.428 0H226.509L203.512 33.6946L216.035 53.641H204.731L196.975 40.066L189.218 53.641H177.914Z" fill="#0097DC"/>
</svg>
