<svg width="243" height="55" viewBox="0 0 243 55" fill="none" xmlns="http://www.w3.org/2000/svg">
<path d="M112.35 44.4299V48.67H85.2134V6.26855H112.35V10.5087H90.3016V25.0464H108.958V29.2865H90.3016V44.4299H112.35Z" fill="white"/>
<path d="M145.123 6.26855H150.575L139.248 26.6818L152.089 48.67H146.517L136.28 30.498C135.876 29.8519 135.674 29.2865 135.674 28.8019H135.432C135.432 29.2865 135.23 29.8519 134.826 30.498L124.589 48.67H119.016L131.858 26.6818L120.531 6.26855H125.982L134.705 22.6234C135.189 23.5926 135.432 24.2185 135.432 24.5012H135.674C135.674 24.3397 135.714 24.1579 135.795 23.956C135.876 23.7137 135.977 23.4714 136.098 23.2291C136.26 22.9465 136.36 22.7446 136.401 22.6234L145.123 6.26855Z" fill="white"/>
<path d="M160.28 6.26855H165.368V48.67H160.28V6.26855Z" fill="white"/>
<path d="M171.073 6.26855H203.055V10.5087H189.608V48.67H184.52V10.5087H171.073V6.26855Z" fill="white"/>
<path d="M214.601 6.26855H236.771C237.74 6.26855 238.709 6.67238 239.678 7.48003L241.132 8.6915C242.101 9.49914 242.586 10.5087 242.586 11.7202V43.2184C242.586 44.4299 242.101 45.4394 241.132 46.2471L239.678 47.4586C238.709 48.2662 237.74 48.67 236.771 48.67H214.601C213.632 48.67 212.662 48.2662 211.693 47.4586L210.24 46.2471C209.27 45.4394 208.786 44.4299 208.786 43.2184V11.7202C208.786 10.5087 209.27 9.49914 210.24 8.6915L211.693 7.48003C212.662 6.67238 213.632 6.26855 214.601 6.26855ZM237.498 41.9464V12.9922C237.498 12.3865 237.457 12.0029 237.376 11.8413C237.336 11.6394 237.134 11.3971 236.771 11.1144C236.407 10.8318 236.125 10.6702 235.923 10.6299C235.721 10.5491 235.256 10.5087 234.53 10.5087H216.842C216.115 10.5087 215.651 10.5491 215.449 10.6299C215.247 10.6702 214.964 10.8318 214.601 11.1144C214.237 11.3971 214.015 11.6394 213.935 11.8413C213.894 12.0029 213.874 12.3865 213.874 12.9922V41.9464C213.874 42.5521 213.894 42.9559 213.935 43.1578C214.015 43.3194 214.237 43.5415 214.601 43.8242C214.964 44.1068 215.247 44.2885 215.449 44.3693C215.651 44.4097 216.115 44.4299 216.842 44.4299H234.53C235.256 44.4299 235.721 44.4097 235.923 44.3693C236.125 44.2885 236.407 44.1068 236.771 43.8242C237.134 43.5415 237.336 43.3194 237.376 43.1578C237.457 42.9559 237.498 42.5521 237.498 41.9464Z" fill="white"/>
<rect width="54.9388" height="14.428" fill="white"/>
<rect y="20.2551" width="54.9388" height="14.428" fill="white"/>
<rect y="40.5107" width="54.9388" height="14.428" fill="white"/>
</svg>
